<?xml version="1.0" encoding="UTF-8" standalone="no"?>
<!-- Created with Inkscape (http://www.inkscape.org/) -->

<svg
   xmlns:dc="http://purl.org/dc/elements/1.1/"
   xmlns:cc="http://creativecommons.org/ns#"
   xmlns:rdf="http://www.w3.org/1999/02/22-rdf-syntax-ns#"
   xmlns:svg="http://www.w3.org/2000/svg"
   xmlns="http://www.w3.org/2000/svg"
   xmlns:sodipodi="http://sodipodi.sourceforge.net/DTD/sodipodi-0.dtd"
   xmlns:inkscape="http://www.inkscape.org/namespaces/inkscape"
   width="500mm"
   height="500mm"
   viewBox="0 0 500 500"
   version="1.1"
   id="svg8"
   inkscape:version="0.92.4 (5da689c313, 2019-01-14)"
   sodipodi:docname="Assistant.svg">
  <defs
     id="defs2">
    <filter
       inkscape:collect="always"
       style="color-interpolation-filters:sRGB"
       id="filter4720"
       x="-0.087138578"
       width="1.1742771"
       y="-0.047161438"
       height="1.0943229">
      <feGaussianBlur
         inkscape:collect="always"
         stdDeviation="2.837232"
         id="feGaussianBlur4722" />
    </filter>
  </defs>
  <sodipodi:namedview
     id="base"
     pagecolor="#ffffff"
     bordercolor="#666666"
     borderopacity="1.0"
     inkscape:pageopacity="0.0"
     inkscape:pageshadow="2"
     inkscape:zoom="0.0875"
     inkscape:cx="-1718.1914"
     inkscape:cy="931.06759"
     inkscape:document-units="mm"
     inkscape:current-layer="flowRoot4537"
     showgrid="false"
     inkscape:window-width="1366"
     inkscape:window-height="705"
     inkscape:window-x="-8"
     inkscape:window-y="-8"
     inkscape:window-maximized="1"
     showguides="true"
     inkscape:guide-bbox="true">
    <sodipodi:guide
       position="250,381"
       orientation="1,0"
       id="guide4752"
       inkscape:locked="false"
       inkscape:label=""
       inkscape:color="rgb(0,0,255)" />
    <sodipodi:guide
       position="607.78571,235.85714"
       orientation="0,1"
       id="guide4754"
       inkscape:locked="false" />
  </sodipodi:namedview>
  <metadata
     id="metadata5">
    <rdf:RDF>
      <cc:Work
         rdf:about="">
        <dc:format>image/svg+xml</dc:format>
        <dc:type
           rdf:resource="http://purl.org/dc/dcmitype/StillImage" />
        <dc:title></dc:title>
      </cc:Work>
    </rdf:RDF>
  </metadata>
  <g
     inkscape:label="Vrstva 1"
     inkscape:groupmode="layer"
     id="layer1"
     transform="translate(0,203)">
    <flowRoot
       xml:space="preserve"
       id="flowRoot14"
       style="font-style:normal;font-weight:normal;font-size:40px;line-height:19.85000038;font-family:sans-serif;letter-spacing:0px;word-spacing:0px;fill:#000000;fill-opacity:1;stroke:none"
       transform="scale(0.26458333)"><flowRegion
         id="flowRegion16"
         style="line-height:19.85000038"><rect
           id="rect18"
           width="0"
           height="0"
           x="155.05841"
           y="582.08807"
           style="line-height:19.85000038" /></flowRegion><flowPara
         id="flowPara20"
         style="font-style:normal;font-variant:normal;font-weight:normal;font-stretch:normal;line-height:19.85000038;font-family:'ONE DAY';-inkscape-font-specification:'ONE DAY'">?</flowPara></flowRoot>    <g
       id="g4732"
       transform="translate(294.82143,10.583333)">
      <rect
         style="fill:#030000;fill-opacity:0.91216221;stroke-width:0.40927696"
         y="153.36905"
         x="-894.85767"
         height="505.8475"
         width="508.34573"
         id="rect4535" />
      <g
         id="flowRoot4537-2"
         style="font-style:normal;font-weight:normal;font-size:40px;line-height:1.25;font-family:sans-serif;letter-spacing:0px;word-spacing:0px;fill:#000000;fill-opacity:1;stroke:none"
         transform="matrix(2.4100148,0,0,2.4100148,-81.409555,127.8859)"
         aria-label="?">
        <path
           inkscape:connector-curvature="0"
           id="path4569"
           style="font-style:normal;font-variant:normal;font-weight:normal;font-stretch:normal;font-size:192px;line-height:0;font-family:'ONE DAY';-inkscape-font-specification:'ONE DAY';fill:#000000;fill-opacity:1;filter:url(#filter4720)"
           d="m 16.287323,15.387135 q -2.496,0 -4.224,-1.728 -1.536,-1.728 -1.536,-4.0320002 V -28.964865 q 0,-2.496 1.536,-4.224 1.728,-1.728 4.224,-1.728 9.984,0 16.128,-2.88 6.336,-2.88 9.792,-7.488 3.648,-4.608 4.8,-10.176 1.344,-5.568 1.344,-11.136 0,-2.112 -0.576,-7.296 -0.384,-5.184 -3.072,-10.752 -6.72,-13.056 -24.96,-13.056 -16.8960002,0 -22.6560002,12.288 -2.688,5.568 -3.264,11.136 -0.384,5.376 -0.384,7.68 0,2.688 -1.728,4.416 -1.536,1.536 -3.8399998,1.536 -2.496,0 -4.224,-1.536 -1.728001,-1.728 -1.728001,-4.416 0,-1.344 0,-3.84 0.192,-2.688 0.576,-5.76 0.384,-3.264 1.344001,-6.912 1.152,-3.648 2.88,-7.296 1.536,-3.072 4.0319998,-6.336 2.688,-3.264005 6.528,-5.952005 4.032,-2.688 9.408,-4.416 5.5680002,-1.728 13.0560002,-1.728 7.872,0 13.632,1.92 5.952,1.728 9.984,4.608 4.224,2.688005 6.912,6.144005 2.88,3.264 4.608,6.336 1.92,3.648 2.88,7.296 1.152,3.648 1.536,6.912 0.576,3.072 0.576,5.568 0.192,2.304 0.192,3.456 0,2.88 -0.768,9.6 -0.768,6.528 -4.992,13.824 -4.416,8.448 -13.248,13.824 -4.224,2.496 -9.024,3.648 -4.608,1.152 -10.368,1.728 V 9.6271348 q 0,2.3040002 -1.536,4.0320002 -1.344,1.728 -3.84,1.728 z m 5.376,14.592 q 0,2.304 -1.536,4.032 -1.344,1.536 -3.84,1.536 -2.496,0 -4.224,-1.536 -1.536,-1.728 -1.536,-4.032 0,-2.304 1.536,-3.84 1.728,-1.536 4.224,-1.536 2.496,0 3.84,1.536 1.536,1.536 1.536,3.84 z" />
      </g>
      <g
         id="flowRoot4537"
         style="font-style:normal;font-weight:normal;font-size:40px;line-height:1.25;font-family:sans-serif;letter-spacing:0px;word-spacing:0px;fill:#f0f0f0;fill-opacity:1;stroke:none"
         transform="matrix(2.4100148,0,0,2.4100148,-157.56256,87.041506)"
         aria-label="?">
        <path
           id="path4724"
           style="font-style:normal;font-variant:normal;font-weight:normal;font-stretch:normal;font-size:192px;line-height:0;font-family:'ONE DAY';-inkscape-font-specification:'ONE DAY';fill:#dcdcdc;fill-opacity:1"
           d="m 42.940266,27.502109 q -2.496,0 -4.224,-1.728 -1.536,-1.728 -1.536,-4.032 v -38.592 q 0,-2.496 1.536,-4.224 1.728,-1.728 4.224,-1.728 9.984,0 16.128,-2.88 6.336,-2.88 9.792,-7.488 3.648,-4.608 4.8,-10.176 1.344,-5.568 1.344,-11.136 0,-2.112 -0.576,-7.296 -0.384,-5.184 -3.072,-10.752 -6.72,-13.056 -24.96,-13.056 -16.896,0 -22.656,12.288 -2.688,5.568 -3.264,11.136 -0.384,5.376 -0.384,7.68 0,2.688 -1.728,4.416 -1.536,1.536 -3.84,1.536 -2.496,0 -4.224,-1.536 -1.7280004,-1.728 -1.7280004,-4.416 0,-1.344 0,-3.84 0.192,-2.688 0.576,-5.76 0.384,-3.264 1.3440004,-6.912 1.152,-3.648 2.88,-7.296 1.536,-3.072 4.032,-6.336 2.688,-3.264 6.528,-5.952 4.032,-2.688 9.408,-4.416 5.568,-1.728 13.056,-1.728 7.872,0 13.632,1.92 5.952,1.728 9.984,4.608 4.224,2.688 6.912,6.144 2.88,3.264 4.608,6.336 1.92,3.648 2.88,7.296 1.152,3.648 1.536,6.912 0.576,3.072 0.576,5.568 0.192,2.304 0.192,3.456 0,2.88 -0.768,9.6 -0.768,6.528 -4.992,13.824 -4.416,8.448 -13.248,13.824 -4.224,2.496 -9.024,3.648 -4.608,1.152 -10.368,1.728 v 33.6 q 0,2.304 -1.536,4.032 -1.344,1.728 -3.84,1.728 z m 5.376,14.592 q 0,2.304 -1.536,4.032 -1.344,1.536 -3.84,1.536 -2.496,0 -4.224,-1.536 -1.536,-1.728 -1.536,-4.032 0,-2.304 1.536,-3.84 1.728,-1.536 4.224,-1.536 2.496,0 3.84,1.536 1.536,1.536 1.536,3.84 z"
           inkscape:connector-curvature="0" />
      </g>
    </g>
  </g>
</svg>
