<?xml version="1.0" encoding="UTF-8" standalone="no"?>
<svg
   xmlns:dc="http://purl.org/dc/elements/1.1/"
   xmlns:cc="http://creativecommons.org/ns#"
   xmlns:rdf="http://www.w3.org/1999/02/22-rdf-syntax-ns#"
   xmlns:svg="http://www.w3.org/2000/svg"
   xmlns="http://www.w3.org/2000/svg"
   version="1.1"
   id="svg3713"
   width="512.66602"
   height="459.98901"
   viewBox="0 0 512.66603 459.98901">
  <metadata
     id="metadata3719">
    <rdf:RDF>
      <cc:Work
         rdf:about="">
        <dc:format>image/svg+xml</dc:format>
        <dc:type
           rdf:resource="http://purl.org/dc/dcmitype/StillImage" />
        <dc:title></dc:title>
      </cc:Work>
    </rdf:RDF>
  </metadata>
  <defs
     id="defs3717">
    <filter
       style="color-interpolation-filters:sRGB"
       id="filter5210"
       x="-0.0044320086"
       width="1.008864"
       y="-0.0092848791"
       height="1.0185698">
      <feGaussianBlur
         stdDeviation="0.31032715"
         id="feGaussianBlur5212" />
    </filter>
    <clipPath
       clipPathUnits="userSpaceOnUse"
       id="clipPath953">
      <rect
         style="opacity:1;fill:#000000;fill-opacity:1;stroke:none;stroke-width:20;stroke-miterlimit:4;stroke-dasharray:none;stroke-opacity:1"
         id="rect955"
         width="595.44556"
         height="481.62427"
         x="110.99934"
         y="34.396381" />
    </clipPath>
    <clipPath
       clipPathUnits="userSpaceOnUse"
       id="clipPath959">
      <rect
         style="opacity:1;fill:#000000;fill-opacity:1;stroke:none;stroke-width:20;stroke-miterlimit:4;stroke-dasharray:none;stroke-opacity:1"
         id="rect961"
         width="535.24255"
         height="463.75146"
         x="147.68556"
         y="47.565796" />
    </clipPath>
    <clipPath
       clipPathUnits="userSpaceOnUse"
       id="clipPath967">
      <rect
         style="opacity:1;fill:#000000;fill-opacity:1;stroke:none;stroke-width:20;stroke-miterlimit:4;stroke-dasharray:none;stroke-opacity:1"
         id="rect969"
         width="525.83588"
         height="453.40408"
         x="155.21094"
         y="56.031849"
         ry="5.6440301" />
    </clipPath>
    <clipPath
       clipPathUnits="userSpaceOnUse"
       id="clipPath982">
      <rect
         style="opacity:1;fill:#000000;fill-opacity:1;stroke:none;stroke-width:116.72621155;stroke-miterlimit:4;stroke-dasharray:none;stroke-opacity:1"
         id="rect984"
         width="512.66644"
         height="459.98877"
         x="165.55833"
         y="53.209831"
         ry="5.6440301" />
    </clipPath>
  </defs>
  <g
     id="g136"
     transform="translate(-164.96523,-53.560963)"
     clip-path="url(#clipPath982)">
    <rect
       y="0.72856271"
       x="1.1524154"
       height="632.66443"
       width="1170.7137"
       id="rect4603"
       style="opacity:1;fill:#211d7c;fill-opacity:1;stroke:none;stroke-width:7.06744719;stroke-opacity:1" />
    <path
       id="path4578"
       d="m 568.99671,507.59824 c -1.16867,-0.81856 -7.4182,-3.90161 -13.88788,-6.85121 -6.46966,-2.94961 -18.69578,-8.71513 -27.16914,-12.81229 -15.95727,-7.71586 -27.93462,-13.38955 -40.75167,-19.30415 -4.10001,-1.89201 -8.14915,-4.06391 -8.99806,-4.82646 -1.33885,-1.20261 -3.97574,-0.42529 -19.88804,5.86276 -10.08949,3.98705 -20.48608,8.50421 -23.10353,10.03814 -6.29367,3.68833 -12.85385,3.29417 -17.82554,-1.07104 -1.83196,-1.60847 -12.85776,-7.7524 -24.50178,-13.65317 l -21.17097,-10.72868 -2.1411,2.00616 c -1.67846,1.57266 -36.47312,19.03417 -37.92843,19.03417 -0.19255,0 -9.66287,4.52677 -21.04516,10.05947 -28.77878,13.9888 -32.8959,15.78305 -36.21591,15.78305 -1.60118,0 -6.59133,-1.85172 -11.08921,-4.11494 -4.49788,-2.26322 -15.55799,-7.57627 -24.57801,-11.80678 -43.98018,-20.62727 -59.32513,-28.13849 -61.36077,-30.03553 -1.22164,-1.13847 -2.43826,-3.45204 -2.70361,-5.14129 -0.26537,-1.68924 -0.97479,-28.00519 -1.57653,-58.47987 -1.08431,-54.9151 -1.07615,-55.43292 0.9157,-58.14569 1.30704,-1.78008 6.11029,-4.62816 13.73711,-8.14538 12.61976,-5.81979 44.16327,-20.62434 63.27849,-29.69898 l 11.79342,-5.59873 -0.36308,-31.16238 -0.36308,-31.16239 3.246,-2.90302 c 1.78529,-1.59667 4.23789,-2.90303 5.45022,-2.90303 1.21233,0 13.99597,-4.13728 28.4081,-9.19396 l 26.20386,-9.19398 -0.71309,-44.78131 -0.71311,-44.78129 2.35611,-2.63822 c 1.29585,-1.45101 4.59246,-3.50355 7.3258,-4.56117 2.73335,-1.05763 14.58612,-6.49115 26.33949,-12.07448 11.75338,-5.58334 24.5007,-11.62121 28.32738,-13.41749 3.82668,-1.79627 11.82811,-5.55044 17.78097,-8.34261 5.95284,-2.79215 11.50274,-5.07664 12.3331,-5.07664 0.83035,0 5.3526,1.74702 10.04944,3.88227 4.69684,2.13526 20.16883,9.11676 34.38222,15.51446 14.21338,6.3977 32.06127,14.49071 39.66197,17.98447 7.6007,3.49376 14.34367,6.35229 14.98437,6.35229 0.64071,0 2.24925,1.1539 3.57456,2.56424 l 2.40962,2.56422 0.27558,48.4967 0.27558,48.4967 8.66991,4.50812 c 4.76845,2.47947 13.14265,6.89771 18.60934,9.81833 14.16925,7.57003 18.50262,9.62231 21.70386,10.27899 1.55042,0.31803 3.9683,1.7276 5.37307,3.13237 l 2.55411,2.55411 -0.66098,28.96315 -0.66099,28.96316 17.65164,7.89655 c 15.72949,7.03666 37.83403,17.00743 62.87605,28.36167 4.64669,2.10685 9.26487,4.91419 10.26263,6.23855 1.70239,2.25961 1.82482,5.93099 1.98789,59.6079 0.20233,66.59963 1.71299,59.06414 -13.24446,66.066 -5.19335,2.43111 -12.57338,5.93473 -16.40006,7.78583 -43.79688,21.18607 -65.91919,31.28063 -68.55181,31.28063 -1.68671,0 -4.02292,-0.66974 -5.19159,-1.4883 z m 31.63356,-32.68438 c 16.5377,-7.9435 30.42509,-14.54471 43.38708,-20.62354 l 8.23482,-3.86193 -0.10923,-42.23481 c -0.0601,-23.22916 -0.38521,-42.23484 -0.72254,-42.23484 -0.59784,0 -13.24759,5.3142 -49.18347,20.66216 l -17.64249,7.53497 v 44.04709 c 0,24.22591 0.17156,44.04712 0.38123,44.04712 0.20968,0 7.25425,-3.3013 15.6546,-7.33622 z m -37.90258,-37.74404 v -44.08629 l -9.19397,-4.27998 c -5.05668,-2.354 -13.21944,-5.94322 -18.13946,-7.97606 -4.92002,-2.03283 -15.43097,-6.59414 -23.35766,-10.13624 -7.9267,-3.5421 -15.37693,-6.7438 -16.55607,-7.11489 l -2.1439,-0.67471 0.41593,22.15287 c 0.5759,30.67292 1.11077,46.55954 1.58346,47.03222 0.22055,0.22055 8.87628,-2.9389 19.23497,-7.02098 23.1241,-9.1126 27.16262,-9.41405 30.84038,-2.30205 1.98145,3.8317 1.19424,8.83817 -1.84816,11.75379 -1.21291,1.16237 -9.36168,4.94394 -18.10838,8.4035 -8.7467,3.45955 -17.64445,7.0187 -19.77278,7.90922 l -3.8697,1.61913 9.83336,4.73753 c 5.40834,2.60564 12.68929,6.06806 16.17989,7.69427 3.49059,1.62622 12.43608,5.94271 19.87886,9.59221 7.44278,3.6495 13.86778,6.6686 14.27778,6.70911 0.41,0.0405 0.74545,-19.76517 0.74545,-44.01265 z M 289.55944,472.4175 c 4.14626,-1.81097 10.51891,-4.84047 45.04037,-21.4118 l 15.88512,-7.62533 -9.42449,-4.98945 c -5.18348,-2.74421 -13.71637,-7.19912 -18.96198,-9.89982 -9.73342,-5.01124 -11.8323,-7.19986 -11.8323,-12.33824 0,-5.41557 5.04933,-10.43639 10.49567,-10.43639 0.96071,0 8.39966,3.3686 16.53101,7.48579 l 14.78428,7.48578 -0.10758,-31.34041 c -0.0592,-17.23725 -0.26229,-31.34044 -0.45138,-31.34044 -0.1891,0 -11.22544,4.62107 -24.52519,10.26904 -13.29976,5.64799 -28.31867,12.00387 -33.37535,14.12419 l -9.19397,3.8551 v 44.0215 c 0,24.21183 0.18655,44.02151 0.41456,44.02151 0.22802,0 2.35257,-0.84646 4.72123,-1.88103 z m -27.24079,-43.40922 -0.25872,-44.2963 -6.9576,-3.02145 c -7.42363,-3.22382 -30.23285,-13.20231 -49.53221,-21.66913 -6.4693,-2.83816 -11.92227,-5.00037 -12.11772,-4.80492 -0.19545,0.19545 0.05,18.01156 0.54549,39.59137 0.49546,21.57979 0.9166,40.94264 0.93587,43.02854 l 0.035,3.79255 14.66065,6.98005 c 8.06336,3.83904 19.80432,9.41216 26.09101,12.38474 6.28668,2.97257 14.56126,6.92517 18.38794,8.78353 3.82668,1.85837 7.29766,3.41226 7.71329,3.45309 0.41563,0.0409 0.63927,-19.8591 0.49697,-44.22207 z m 188.9465,21.20567 23.21674,-9.18399 -0.59808,-20.39009 c -0.32896,-11.21454 -0.87709,-33.15257 -1.21807,-48.75118 l -0.61998,-28.36108 2.56418,-3.04735 c 1.4103,-1.67606 4.59508,-3.82299 7.07729,-4.77095 2.48222,-0.94796 19.08415,-8.60233 36.89318,-17.00969 17.80904,-8.40737 34.08782,-16.03958 36.17507,-16.96046 l 3.795,-1.67436 0.68321,-16.99867 c 0.37576,-9.34927 0.5329,-19.39516 0.3492,-22.32419 l -0.334,-5.32553 -14.90914,-7.87803 c -8.20003,-4.33292 -16.69825,-8.7893 -18.88492,-9.90307 l -3.97577,-2.02503 -30.31526,14.56398 c -16.6734,8.01018 -36.70179,17.64441 -44.50753,21.40939 -21.75355,10.49248 -19.26356,10.32401 -35.59062,2.40816 -15.82133,-7.67065 -34.17062,-16.41434 -42.15685,-20.08832 -19.46403,-8.95422 -39.4714,-19.04377 -40.66811,-20.50858 -0.77405,-0.94746 -1.66859,-3.19919 -1.98789,-5.00382 l -0.58052,-3.28116 -21.45872,7.52397 -21.45871,7.52396 0.44346,27.36697 c 0.30222,18.65064 0.8054,27.73198 1.57986,28.513 0.62502,0.63031 6.28005,3.37492 12.56674,6.09912 6.28668,2.72421 14.7849,6.53587 18.88491,8.47037 7.72994,3.64719 19.79023,9.06421 40.25469,18.08087 7.15045,3.15049 12.59668,6.19273 13.59865,7.59614 1.47874,2.07125 1.76505,7.7044 2.48485,48.89129 l 0.81354,46.55029 26.83646,13.812 c 14.76005,7.59659 27.0601,13.8228 27.33343,13.83601 0.27334,0.0132 10.94451,-4.10877 23.71371,-9.15997 z m 134.42516,-82.14857 c 5.68397,-2.18094 18.94186,-7.22603 29.46201,-11.21132 18.79379,-7.11956 19.07994,-7.27119 16.40006,-8.69067 -2.13574,-1.13127 -46.20593,-21.28208 -51.67917,-23.62998 -0.95266,-0.40867 -1.24243,2.12308 -1.24243,10.85539 0,6.26362 -0.48074,12.76743 -1.06831,14.45294 -2.87141,8.23694 -15.82772,8.5178 -18.93202,0.41041 -0.56687,-1.4805 -0.89766,-8.02306 -0.73859,-14.60869 0.33878,-14.02547 1.13151,-13.56187 -12.00914,-7.02314 -4.67531,2.32641 -14.6506,7.05055 -22.16729,10.49807 -7.51669,3.44754 -13.66672,6.60437 -13.66672,7.01521 0,0.41082 2.79547,1.85844 6.21215,3.21691 6.47624,2.57496 43.03046,18.41682 49.94563,21.64544 4.89653,2.28613 6.52732,2.04085 19.48382,-2.93057 z M 294.71577,356.96841 c 11.5594,-4.39802 24.81891,-9.39428 29.46559,-11.10283 4.64669,-1.70854 8.79989,-3.40392 9.22933,-3.76749 0.42945,-0.36359 -2.2542,-2.04057 -5.96366,-3.72663 -34.35156,-15.61379 -42.17211,-19.12805 -42.56709,-19.12805 -0.25096,0 -0.45629,3.17565 -0.45629,7.05699 0,6.70035 -0.17079,7.22778 -3.37941,10.4364 -3.75667,3.75668 -6.92176,4.27138 -11.54964,1.8782 -4.34553,-2.24716 -5.35072,-4.96214 -5.92136,-15.9934 l -0.51937,-10.04004 -8.94549,4.28734 c -24.3703,11.68001 -40.40591,19.18557 -42.22,19.76134 -4.2631,1.35305 -5.87638,0.5279 39.73515,20.32348 10.11337,4.38923 19.21757,7.98733 20.23155,7.99576 1.01399,0.008 11.3013,-3.58306 22.86069,-7.98107 z M 479.23648,233.06882 c 6.28669,-2.99515 13.10762,-6.12524 15.15763,-6.95578 2.05001,-0.83054 3.72729,-1.87098 3.72729,-2.31209 0,-0.44112 -7.93912,-4.89702 -17.64249,-9.90201 -9.70337,-5.00499 -18.66273,-10.09866 -19.9097,-11.31928 -6.93058,-6.78413 -0.33087,-18.99997 9.14899,-16.93445 1.68171,0.36641 6.41221,2.56288 10.51222,4.88102 9.06523,5.12546 21.53066,11.4319 22.59653,11.4319 0.73625,0 0.45082,-63.69548 -0.28892,-64.47707 -0.19143,-0.20225 -8.5317,3.08543 -18.53391,7.30596 -10.00223,4.22053 -24.77997,10.42423 -32.83942,13.78597 l -14.65354,6.11227 -0.007,44.41967 -0.007,44.41965 15.6546,-7.50503 c 8.61003,-4.12777 20.79826,-9.95559 27.08495,-12.95073 z m -64.6063,-24.92912 v -44.50953 l -2.73334,-1.11244 c -7.41128,-3.01631 -23.78919,-10.05686 -44.23047,-19.01385 l -22.6122,-9.90824 v 11.65769 c 0,6.41173 0.29305,20.40782 0.65122,31.10242 l 0.65122,19.44473 12.44765,-4.41571 c 13.95845,-4.95167 16.5028,-4.97781 20.51408,-0.21069 3.87444,4.60452 3.00652,12.35883 -1.66496,14.8754 -1.25617,0.6767 -8.76943,3.57234 -16.69612,6.43473 -8.40063,3.03354 -14.41218,5.73838 -14.41218,6.48462 0,1.53111 0.58622,1.83748 30.31527,15.84294 12.84671,6.05213 26.48858,12.53181 30.31526,14.39928 3.82668,1.86748 7.06942,3.40503 7.20609,3.41679 0.13666,0.0117 0.24848,-20.0079 0.24848,-44.48814 z m 25.84252,-70.33429 c 46.84055,-17.36946 46.11376,-17.07118 44.13918,-18.11469 -1.61296,-0.85241 -12.20489,-5.65674 -59.79716,-27.12305 l -6.21552,-2.80349 -17.14214,8.00802 c -9.42818,4.40441 -22.19342,10.37299 -28.36721,13.26353 -6.1738,2.89052 -11.09939,5.63321 -10.94577,6.09486 0.26277,0.78969 13.02087,6.83332 20.67992,9.79627 1.91334,0.74019 11.75338,4.95622 21.86675,9.36895 10.11337,4.41273 19.05886,7.76008 19.87886,7.43855 0.82,-0.32153 7.97639,-2.98957 15.90309,-5.92895 z"
       style="opacity:1;fill:#fdfdfd;fill-opacity:1;stroke-width:0.99394304" />
    <rect
       y="342.93692"
       x="235.16809"
       height="75.253792"
       width="104.41463"
       id="rect4601"
       style="opacity:0.52600002;fill:#007cff;fill-opacity:0" />
    <flowRoot
       transform="translate(479.7429,340.74904)"
       style="font-style:normal;font-weight:normal;font-size:40px;line-height:1.25;font-family:sans-serif;letter-spacing:0px;word-spacing:0px;fill:#000000;fill-opacity:1;stroke:none"
       id="flowRoot5129"
       xml:space="preserve"><flowRegion
         id="flowRegion5131"><rect
           y="-185.94659"
           x="354.63348"
           height="112.88068"
           width="226.70204"
           id="rect5133" /></flowRegion><flowPara
         id="flowPara5137" /></flowRoot>    <flowRoot
       transform="translate(479.7429,340.74904)"
       style="font-style:normal;font-weight:normal;font-size:40px;line-height:1.25;font-family:sans-serif;letter-spacing:0px;word-spacing:0px;fill:#000000;fill-opacity:1;stroke:none"
       id="flowRoot5141"
       xml:space="preserve"><flowRegion
         id="flowRegion5143"><rect
           y="-161.48912"
           x="398.84509"
           height="158.03296"
           width="262.4476"
           id="rect5145" /></flowRegion><flowPara
         id="flowPara5147" /></flowRoot>    <g
       id="text73"
       style="font-style:normal;font-variant:normal;font-weight:normal;font-stretch:normal;font-size:115.57741547px;line-height:1.25;font-family:'ONE DAY';-inkscape-font-specification:'ONE DAY, Normal';font-variant-ligatures:normal;font-variant-caps:normal;font-variant-numeric:normal;font-feature-settings:normal;text-align:start;letter-spacing:0px;word-spacing:0px;writing-mode:lr-tb;text-anchor:start;fill:#ffffff;fill-opacity:1;stroke:none;stroke-width:2.8811903"
       aria-label="STEEM SCHOOL">
      <path
         id="path78"
         style="stroke-width:2.8811903"
         d="m 784.7705,209.42927 c 0,0 0,-0.11558 0,-0.11558 0,0 0,0 0,0 0,-1.04019 -0.34673,-6.24118 -3.23617,-11.55774 -3.00501,-5.31656 -9.24619,-11.67332 -22.07528,-11.67332 -5.54772,0 -10.40197,1.15578 -14.10045,3.00502 -3.35174,1.84923 -6.01002,4.27636 -7.85926,7.39695 -1.50251,2.42713 -2.31155,5.08541 -2.88944,7.97484 -0.34673,2.31155 -0.34673,4.16079 -0.34673,4.96983 0,1.73366 0,6.70349 2.5427,11.67332 1.38693,3.00501 3.46732,5.43214 6.12561,7.39695 3.00501,2.31155 6.81906,3.69848 11.44216,4.16079 0.11558,0.11558 0.34673,0.11558 0.46231,0.11558 1.61808,0 3.00501,-1.27135 3.23617,-2.88944 0.23115,-1.73366 -1.0402,-3.46732 -2.77386,-3.69847 -11.90448,-1.50251 -14.3316,-9.93966 -14.3316,-16.75873 0,-7.51253 3.23617,-16.75872 18.49239,-16.75872 7.6281,0 13.17582,2.88943 16.18083,8.20599 2.42713,4.16079 2.42713,8.55273 2.54271,8.66831 h -0.11558 0.11558 c 0,1.84924 1.5025,3.23617 3.35174,3.23617 1.73366,0 3.23617,-1.50251 3.23617,-3.35175 0,0 0,0 0,0 z m -2.19597,29.81897 c -1.27135,-3.00501 -3.23617,-5.54771 -5.66329,-7.39695 -2.77386,-2.42713 -6.35676,-4.04521 -10.40197,-4.73867 -1.96482,-0.34674 -3.5829,0.69346 -3.92963,2.5427 -0.46231,1.84924 0.69346,3.5829 2.5427,3.92963 8.6683,1.61808 12.94467,7.51253 12.94467,17.33661 0,10.63313 -6.01003,15.94969 -18.49239,15.94969 -7.85926,0 -13.17582,-2.54271 -16.29641,-7.85927 -2.31155,-3.92963 -2.31155,-7.97484 -2.31155,-8.09042 0,-1.84924 -1.61808,-3.46732 -3.35175,-3.46732 -1.84923,0 -3.35174,1.61808 -3.35174,3.46732 0,0.23116 0.11558,5.77887 3.23617,11.32659 2.88943,5.08541 9.13061,11.21101 22.07528,11.21101 5.54772,0 10.40197,-1.0402 13.98487,-2.77386 3.35175,-1.73366 6.1256,-3.92963 8.09042,-7.05022 3.12059,-5.20099 3.12059,-10.63312 3.12059,-12.71352 0,-1.84924 0,-6.70349 -2.19597,-11.67332 z" />
      <path
         id="path80"
         style="stroke-width:2.8811903"
         d="m 849.967,193.01728 c 1.84924,0 3.35174,-1.50251 3.35174,-3.23617 0,-1.84924 -1.5025,-3.35174 -3.35174,-3.35174 h -54.7837 c -1.84924,0 -3.35174,1.5025 -3.35174,3.35174 0,1.73366 1.5025,3.23617 3.35174,3.23617 z m -27.50743,80.09515 c 1.84924,0 3.35175,-1.50251 3.35175,-3.35175 v -68.53741 c 0,-1.73366 -1.50251,-3.23616 -3.35175,-3.23616 -1.96481,0 -3.35174,1.5025 -3.35174,3.23616 v 68.53741 c 0,1.84924 1.38693,3.35175 3.35174,3.35175 z" />
      <path
         id="path82"
         style="stroke-width:2.8811903"
         d="m 867.25846,213.47448 c 1.84924,0 3.35175,-1.50251 3.35175,-3.35174 v -17.10546 h 44.95961 c 1.84924,0 3.23617,-1.50251 3.23617,-3.35175 0,-1.84924 -1.38693,-3.23616 -3.23617,-3.23616 h -48.31136 c -1.84924,0 -3.23617,1.38692 -3.23617,3.23616 v 20.45721 c 0,1.84923 1.38693,3.35174 3.23617,3.35174 z m 48.31136,59.52237 c 1.84924,0 3.23617,-1.38693 3.23617,-3.23617 0,-1.84924 -1.38693,-3.35174 -3.23617,-3.35174 h -44.95961 v -39.18075 h 33.28629 c 1.84924,0 3.35175,-1.5025 3.35175,-3.23616 0,-1.84924 -1.50251,-3.35175 -3.35175,-3.35175 h -36.63804 c -1.84924,0 -3.23617,1.50251 -3.23617,3.35175 v 45.76865 c 0,1.84924 1.38693,3.23617 3.23617,3.23617 z" />
      <path
         id="path84"
         style="stroke-width:2.8811903"
         d="m 930.23913,213.47448 c 1.84924,0 3.35174,-1.50251 3.35174,-3.35174 v -17.10546 h 44.95962 c 1.84924,0 3.23617,-1.50251 3.23617,-3.35175 0,-1.84924 -1.38693,-3.23616 -3.23617,-3.23616 h -48.31136 c -1.84924,0 -3.23617,1.38692 -3.23617,3.23616 v 20.45721 c 0,1.84923 1.38693,3.35174 3.23617,3.35174 z m 48.31136,59.52237 c 1.84924,0 3.23617,-1.38693 3.23617,-3.23617 0,-1.84924 -1.38693,-3.35174 -3.23617,-3.35174 h -44.95962 v -39.18075 h 33.2863 c 1.84924,0 3.35174,-1.5025 3.35174,-3.23616 0,-1.84924 -1.5025,-3.35175 -3.35174,-3.35175 h -36.63804 c -1.84924,0 -3.23617,1.50251 -3.23617,3.35175 v 45.76865 c 0,1.84924 1.38693,3.23617 3.23617,3.23617 z" />
      <path
         id="path86"
         style="stroke-width:2.8811903"
         d="m 1059.4456,273.11243 c 1.8493,0 3.3518,-1.38693 3.3518,-3.23617 v -80.21073 c 0,-1.38693 -0.9246,-2.77386 -2.4271,-3.12059 -1.387,-0.46231 -2.8895,0.11558 -3.6985,1.38693 l -30.2813,48.88925 -29.93455,-48.88925 c -0.80904,-1.27135 -2.31155,-1.84924 -3.69848,-1.38693 -1.50251,0.34673 -2.42713,1.73366 -2.42713,3.12059 v 80.21073 c 0,1.84924 1.50251,3.23617 3.35175,3.23617 1.84924,0 3.23617,-1.38693 3.23617,-3.23617 v -68.53741 l 26.69834,43.57269 c 0.5779,0.92462 1.6181,1.5025 2.7739,1.5025 0,0 0,0 0,0 1.1558,0 2.196,-0.57788 2.8894,-1.5025 l 26.9296,-43.57269 v 68.53741 c 0,1.84924 1.3869,3.23617 3.2361,3.23617 z" />
      <path
         id="path88"
         style="stroke-width:2.8811903"
         d="m 784.7705,353.90101 c 0,0 0,-0.11558 0,-0.11558 0,0 0,0 0,0 0,-1.04019 -0.34673,-6.24118 -3.23617,-11.55774 -3.00501,-5.31656 -9.24619,-11.67332 -22.07528,-11.67332 -5.54772,0 -10.40197,1.15578 -14.10045,3.00502 -3.35174,1.84924 -6.01002,4.27636 -7.85926,7.39695 -1.50251,2.42713 -2.31155,5.08541 -2.88944,7.97484 -0.34673,2.31155 -0.34673,4.16079 -0.34673,4.96983 0,1.73366 0,6.70349 2.5427,11.67332 1.38693,3.00501 3.46732,5.43214 6.12561,7.39696 3.00501,2.31154 6.81906,3.69847 11.44216,4.16078 0.11558,0.11558 0.34673,0.11558 0.46231,0.11558 1.61808,0 3.00501,-1.27135 3.23617,-2.88944 0.23115,-1.73366 -1.0402,-3.46732 -2.77386,-3.69847 -11.90448,-1.50251 -14.3316,-9.93966 -14.3316,-16.75873 0,-7.51253 3.23617,-16.75872 18.49239,-16.75872 7.6281,0 13.17582,2.88943 16.18083,8.20599 2.42713,4.16079 2.42713,8.55273 2.54271,8.66831 h -0.11558 0.11558 c 0,1.84924 1.5025,3.23617 3.35174,3.23617 1.73366,0 3.23617,-1.50251 3.23617,-3.35175 0,0 0,0 0,0 z m -2.19597,29.81897 c -1.27135,-3.00501 -3.23617,-5.54771 -5.66329,-7.39695 -2.77386,-2.42713 -6.35676,-4.04521 -10.40197,-4.73867 -1.96482,-0.34674 -3.5829,0.69346 -3.92963,2.5427 -0.46231,1.84924 0.69346,3.5829 2.5427,3.92963 8.6683,1.61809 12.94467,7.51253 12.94467,17.33661 0,10.63313 -6.01003,15.94969 -18.49239,15.94969 -7.85926,0 -13.17582,-2.54271 -16.29641,-7.85927 -2.31155,-3.92963 -2.31155,-7.97484 -2.31155,-8.09042 0,-1.84923 -1.61808,-3.46732 -3.35175,-3.46732 -1.84923,0 -3.35174,1.61809 -3.35174,3.46732 0,0.23116 0.11558,5.77887 3.23617,11.32659 2.88943,5.08541 9.13061,11.21101 22.07528,11.21101 5.54772,0 10.40197,-1.0402 13.98487,-2.77386 3.35175,-1.73366 6.1256,-3.92963 8.09042,-7.05022 3.12059,-5.20098 3.12059,-10.63312 3.12059,-12.71352 0,-1.84923 0,-6.70349 -2.19597,-11.67332 z" />
      <path
         id="path90"
         style="stroke-width:2.8811903"
         d="m 854.12779,363.84067 c 1.84923,0 3.23616,-1.38693 3.23616,-3.23617 0,0 0,0 0,-0.11558 0,-0.92462 -0.11557,-12.59793 -8.55273,-21.26624 -5.77887,-5.77887 -13.98486,-8.78388 -24.27125,-8.78388 -7.62811,0 -13.98487,1.61808 -18.9547,4.85425 -4.27636,3.00501 -7.74369,7.05022 -10.17081,12.36678 -3.92963,9.01504 -3.92963,19.53258 -3.92963,26.58281 0,6.58791 0,17.45219 4.04521,26.5828 2.5427,5.31656 5.89444,9.36177 10.17081,12.36679 4.96983,3.23616 11.32658,4.85425 18.83912,4.85425 16.98988,0 24.96472,-8.32158 28.77877,-15.25622 4.04521,-7.51253 4.04521,-14.90949 4.04521,-15.25622 0,-1.84924 -1.38693,-3.23617 -3.23616,-3.23617 -1.84924,0 -3.46733,1.38693 -3.46733,3.23617 0,0.11558 0,6.01003 -3.23616,12.02005 -4.16079,7.85926 -11.90448,11.7889 -22.88433,11.7889 -11.44217,0 -18.9547,-4.27637 -22.88433,-13.17583 -3.46732,-7.97484 -3.46732,-17.79892 -3.46732,-23.92452 0,-18.03008 1.96481,-37.10035 26.35165,-37.10035 8.43715,0 14.90948,2.19597 19.417,6.81906 2.77386,2.65828 4.85425,6.35676 5.89445,10.7487 0.80904,3.35175 0.80904,5.77887 0.80904,5.77887 0,0 0,0 0,0 0,1.96482 1.61809,3.35175 3.46733,3.35175 z" />
      <path
         id="path92"
         style="stroke-width:2.8811903"
         d="m 925.2422,417.58417 c 1.73366,0 3.23617,-1.50251 3.23617,-3.35175 v -39.87421 c 0,-1.84923 -1.50251,-3.35174 -3.23617,-3.35174 h -48.31136 v -36.75362 c 0,-1.84924 -1.50251,-3.35174 -3.35175,-3.35174 -1.73366,0 -3.23616,1.5025 -3.23616,3.35174 v 40.10536 c 0,1.84924 1.5025,3.35175 3.23616,3.35175 h 48.31136 v 36.52246 c 0,1.84924 1.50251,3.35175 3.35175,3.35175 z m 0,-53.51235 c 1.73366,0 3.23617,-1.5025 3.23617,-3.23616 v -26.58281 c 0,-1.84924 -1.50251,-3.35174 -3.23617,-3.35174 -1.84924,0 -3.35175,1.5025 -3.35175,3.35174 v 26.58281 c 0,1.73366 1.50251,3.23616 3.35175,3.23616 z m -51.66311,53.51235 c 1.84924,0 3.35175,-1.50251 3.35175,-3.35175 v -26.5828 c 0,-1.73366 -1.50251,-3.23617 -3.35175,-3.23617 -1.73366,0 -3.23616,1.50251 -3.23616,3.23617 v 26.5828 c 0,1.84924 1.5025,3.35175 3.23616,3.35175 z" />
      <path
         id="path94"
         style="stroke-width:2.8811903"
         d="m 970.7183,417.9309 c 10.86428,0 19.18585,-3.69848 24.73357,-10.97985 3.00501,-3.69848 5.20103,-8.43716 6.58793,-13.75372 1.2713,-5.43214 1.9648,-11.78889 1.9648,-18.95469 0,-14.79391 -2.5427,-25.42703 -7.74369,-32.59283 -2.88943,-3.69848 -6.47233,-6.58792 -10.86428,-8.32158 -4.04521,-1.96481 -9.01503,-2.77386 -14.67833,-2.77386 -5.66329,0 -10.51754,0.69347 -14.56275,2.31155 -4.39194,1.73366 -7.97484,4.27637 -10.86428,7.85927 -2.88943,3.46732 -4.85425,8.09042 -6.1256,13.75371 -1.27135,5.54771 -1.96482,11.90447 -1.96482,19.76374 0,15.48737 2.88944,26.46722 8.78389,33.51745 5.43213,6.81906 13.52255,10.17081 24.73356,10.17081 z m 0,-80.67304 c 9.47735,0 16.06526,2.77386 20.34163,8.55273 4.27636,6.01003 6.35676,15.25622 6.35676,28.43205 0,12.71351 -2.42713,22.30644 -6.93465,28.43204 -4.39194,5.77887 -10.86428,8.55273 -19.76374,8.55273 -9.13061,0 -15.71853,-2.42713 -19.87931,-7.62811 -4.6231,-6.01003 -7.05023,-15.48737 -7.05023,-29.35666 0,-13.98487 2.19598,-23.5778 6.58792,-29.35667 4.04521,-5.20098 10.51754,-7.62811 20.34162,-7.62811 z" />
      <path
         id="path96"
         style="stroke-width:2.8811903"
         d="m 1044.0829,417.9309 c 10.8642,0 19.1858,-3.69848 24.7335,-10.97985 3.005,-3.69848 5.201,-8.43716 6.5879,-13.75372 1.2714,-5.43214 1.9649,-11.78889 1.9649,-18.95469 0,-14.79391 -2.5427,-25.42703 -7.7437,-32.59283 -2.8895,-3.69848 -6.4724,-6.58792 -10.8643,-8.32158 -4.0452,-1.96481 -9.015,-2.77386 -14.6783,-2.77386 -5.6633,0 -10.5176,0.69347 -14.5628,2.31155 -4.3919,1.73366 -7.9748,4.27637 -10.8643,7.85927 -2.8894,3.46732 -4.8542,8.09042 -6.1256,13.75371 -1.2713,5.54771 -1.9648,11.90447 -1.9648,19.76374 0,15.48737 2.8895,26.46722 8.7839,33.51745 5.4321,6.81906 13.5226,10.17081 24.7336,10.17081 z m 0,-80.67304 c 9.4773,0 16.0652,2.77386 20.3416,8.55273 4.2764,6.01003 6.3567,15.25622 6.3567,28.43205 0,12.71351 -2.4271,22.30644 -6.9346,28.43204 -4.3919,5.77887 -10.8643,8.55273 -19.7637,8.55273 -9.1307,0 -15.7186,-2.42713 -19.8793,-7.62811 -4.6231,-6.01003 -7.0503,-15.48737 -7.0503,-29.35666 0,-13.98487 2.196,-23.5778 6.5879,-29.35667 4.0452,-5.20098 10.5176,-7.62811 20.3417,-7.62811 z" />
      <path
         id="path98"
         style="stroke-width:2.8811903"
         d="m 1131.4323,417.58417 c 1.7337,0 3.3518,-1.50251 3.3518,-3.35175 0,-1.84924 -1.6181,-3.23617 -3.3518,-3.23617 h -43.9194 c -1.8492,0 -3.3517,1.38693 -3.3517,3.23617 0,1.84924 1.5025,3.35175 3.3517,3.35175 z m -43.9194,-10.05524 c 1.8492,0 3.2362,-1.38693 3.2362,-3.23617 v -70.03991 c 0,-1.84924 -1.387,-3.35174 -3.2362,-3.35174 -1.8492,0 -3.3517,1.5025 -3.3517,3.35174 v 70.03991 c 0,1.84924 1.5025,3.23617 3.3517,3.23617 z" />
    </g>
    <g
       id="text61"
       style="font-style:normal;font-variant:normal;font-weight:normal;font-stretch:normal;font-size:39.88638687px;line-height:1.25;font-family:'ONE DAY';-inkscape-font-specification:'ONE DAY, Normal';font-variant-ligatures:normal;font-variant-caps:normal;font-variant-numeric:normal;font-feature-settings:normal;text-align:start;letter-spacing:0px;word-spacing:0px;writing-mode:lr-tb;text-anchor:start;opacity:1;fill:#ffffff;fill-opacity:1;stroke:none;filter:url(#filter5210)"
       transform="matrix(2.8976658,0,0,2.8976658,-549.2481,576.03946)"
       aria-label="STEEM SCHOOL">
      <path
         id="path55"
         d="m 461.34863,-126.93033 c 0,0 0,-0.0399 0,-0.0399 0,0 0,0 0,0 0,-0.35898 -0.11966,-2.15387 -1.11682,-3.98864 -1.03705,-1.83477 -3.19091,-4.02853 -7.6183,-4.02853 -1.91455,0 -3.58978,0.39887 -4.86614,1.03705 -1.15671,0.63818 -2.07409,1.4758 -2.71228,2.55273 -0.51852,0.83761 -0.79772,1.755 -0.99716,2.75216 -0.11966,0.79773 -0.11966,1.43591 -0.11966,1.71511 0,0.5983 0,2.31341 0.8775,4.02853 0.47864,1.03705 1.1966,1.87466 2.11398,2.55273 1.03705,0.79773 2.3533,1.27636 3.94876,1.43591 0.0399,0.0399 0.11965,0.0399 0.15954,0.0399 0.55841,0 1.03705,-0.43875 1.11682,-0.99716 0.0798,-0.59829 -0.35898,-1.19659 -0.95727,-1.27636 -4.1083,-0.51852 -4.94592,-3.43023 -4.94592,-5.78353 0,-2.59261 1.11682,-5.78352 6.38183,-5.78352 2.6325,0 4.54704,0.99716 5.58409,2.83193 0.83761,1.43591 0.83761,2.95159 0.8775,2.99148 h -0.0399 0.0399 c 0,0.63818 0.51852,1.11682 1.15671,1.11682 0.59829,0 1.11682,-0.51852 1.11682,-1.15671 0,0 0,0 0,0 z m -0.75785,10.29069 c -0.43875,-1.03704 -1.11682,-1.91454 -1.95443,-2.55273 -0.95727,-0.83761 -2.19375,-1.39602 -3.58977,-1.63534 -0.67807,-0.11966 -1.23648,0.23932 -1.35614,0.8775 -0.15955,0.63818 0.23932,1.23648 0.8775,1.35614 2.99148,0.55841 4.46727,2.59261 4.46727,5.98296 0,3.66954 -2.07409,5.50432 -6.38182,5.50432 -2.71227,0 -4.54705,-0.8775 -5.62398,-2.71228 -0.79773,-1.35613 -0.79773,-2.75216 -0.79773,-2.79204 0,-0.63819 -0.5584,-1.19659 -1.1567,-1.19659 -0.63818,0 -1.15671,0.5584 -1.15671,1.19659 0,0.0798 0.0399,1.99432 1.11682,3.90886 0.99716,1.755 3.15103,3.86898 7.6183,3.86898 1.91455,0 3.58978,-0.35897 4.82626,-0.95727 1.1567,-0.5983 2.11397,-1.35614 2.79204,-2.43307 1.07694,-1.79489 1.07694,-3.66955 1.07694,-4.3875 0,-0.63819 0,-2.31341 -0.75785,-4.02853 z" />
      <path
         id="path57"
         d="m 483.84829,-132.59419 c 0.63818,0 1.1567,-0.51853 1.1567,-1.11682 0,-0.63818 -0.51852,-1.15671 -1.1567,-1.15671 h -18.90615 c -0.63818,0 -1.15671,0.51853 -1.15671,1.15671 0,0.59829 0.51853,1.11682 1.15671,1.11682 z m -9.49296,27.64126 c 0.63818,0 1.1567,-0.51852 1.1567,-1.1567 v -23.65263 c 0,-0.5983 -0.51852,-1.11682 -1.1567,-1.11682 -0.67807,0 -1.15671,0.51852 -1.15671,1.11682 v 23.65263 c 0,0.63818 0.47864,1.1567 1.15671,1.1567 z" />
      <path
         id="path59"
         d="m 489.81567,-125.5343 c 0.63818,0 1.1567,-0.51853 1.1567,-1.15671 v -5.90318 h 15.51581 c 0.63818,0 1.11681,-0.51853 1.11681,-1.15671 0,-0.63818 -0.47863,-1.11682 -1.11681,-1.11682 h -16.67251 c -0.63819,0 -1.11682,0.47864 -1.11682,1.11682 v 7.05989 c 0,0.63818 0.47863,1.15671 1.11682,1.15671 z m 16.67251,20.54149 c 0.63818,0 1.11681,-0.47864 1.11681,-1.11682 0,-0.63818 -0.47863,-1.15671 -1.11681,-1.15671 h -15.51581 v -13.52148 h 11.48728 c 0.63818,0 1.15671,-0.51853 1.15671,-1.11682 0,-0.63818 -0.51853,-1.15671 -1.15671,-1.15671 h -12.64398 c -0.63819,0 -1.11682,0.51853 -1.11682,1.15671 v 15.79501 c 0,0.63818 0.47863,1.11682 1.11682,1.11682 z" />
      <path
         id="path61"
         d="m 511.55063,-125.5343 c 0.63818,0 1.15671,-0.51853 1.15671,-1.15671 v -5.90318 h 15.5158 c 0.63818,0 1.11682,-0.51853 1.11682,-1.15671 0,-0.63818 -0.47864,-1.11682 -1.11682,-1.11682 h -16.67251 c -0.63818,0 -1.11682,0.47864 -1.11682,1.11682 v 7.05989 c 0,0.63818 0.47864,1.15671 1.11682,1.15671 z m 16.67251,20.54149 c 0.63818,0 1.11682,-0.47864 1.11682,-1.11682 0,-0.63818 -0.47864,-1.15671 -1.11682,-1.15671 h -15.5158 v -13.52148 h 11.48728 c 0.63818,0 1.1567,-0.51853 1.1567,-1.11682 0,-0.63818 -0.51852,-1.15671 -1.1567,-1.15671 h -12.64399 c -0.63818,0 -1.11682,0.51853 -1.11682,1.15671 v 15.79501 c 0,0.63818 0.47864,1.11682 1.11682,1.11682 z" />
      <path
         id="path63"
         d="m 556.14049,-104.95293 c 0.63819,0 1.15671,-0.47863 1.15671,-1.11682 v -27.68115 c 0,-0.47863 -0.31909,-0.95727 -0.83762,-1.07693 -0.47863,-0.15955 -0.99715,0.0399 -1.27636,0.47864 l -10.45023,16.87194 -10.33058,-16.87194 c -0.2792,-0.43875 -0.79772,-0.63819 -1.27636,-0.47864 -0.51852,0.11966 -0.83762,0.5983 -0.83762,1.07693 v 27.68115 c 0,0.63819 0.51853,1.11682 1.15671,1.11682 0.63818,0 1.11682,-0.47863 1.11682,-1.11682 v -23.65262 l 9.21375,15.03716 c 0.19944,0.3191 0.55841,0.51853 0.95728,0.51853 0,0 0,0 0,0 0.39886,0 0.75784,-0.19943 0.99716,-0.51853 l 9.29352,-15.03716 v 23.65262 c 0,0.63819 0.47864,1.11682 1.11682,1.11682 z" />
      <path
         id="path65"
         d="m 461.34863,-77.072339 c 0,0 0,-0.03989 0,-0.03989 0,0 0,0 0,0 0,-0.358977 -0.11966,-2.153865 -1.11682,-3.988638 -1.03705,-1.834774 -3.19091,-4.028525 -7.6183,-4.028525 -1.91455,0 -3.58978,0.398863 -4.86614,1.037046 -1.15671,0.638182 -2.07409,1.475796 -2.71228,2.552728 -0.51852,0.837614 -0.79772,1.755001 -0.99716,2.752161 -0.11966,0.797728 -0.11966,1.43591 -0.11966,1.715115 0,0.598295 0,2.31341 0.8775,4.028525 0.47864,1.037046 1.1966,1.87466 2.11398,2.552728 1.03705,0.797728 2.3533,1.276365 3.94876,1.43591 0.0399,0.03989 0.11965,0.03989 0.15954,0.03989 0.55841,0 1.03705,-0.43875 1.11682,-0.99716 0.0798,-0.598296 -0.35898,-1.196591 -0.95727,-1.276364 -4.1083,-0.518523 -4.94592,-3.43023 -4.94592,-5.783526 0,-2.592615 1.11682,-5.783526 6.38183,-5.783526 2.6325,0 4.54704,0.997159 5.58409,2.831933 0.83761,1.43591 0.83761,2.951593 0.8775,2.991479 h -0.0399 0.0399 c 0,0.638182 0.51852,1.116819 1.15671,1.116819 0.59829,0 1.11682,-0.518523 1.11682,-1.156705 0,0 0,0 0,0 z m -0.75785,10.290687 c -0.43875,-1.037046 -1.11682,-1.914546 -1.95443,-2.552728 -0.95727,-0.837614 -2.19375,-1.396024 -3.58977,-1.635342 -0.67807,-0.119659 -1.23648,0.239318 -1.35614,0.8775 -0.15955,0.638183 0.23932,1.236478 0.8775,1.356138 2.99148,0.558409 4.46727,2.592615 4.46727,5.982958 0,3.669547 -2.07409,5.504321 -6.38182,5.504321 -2.71227,0 -4.54705,-0.877501 -5.62398,-2.712274 -0.79773,-1.356138 -0.79773,-2.752161 -0.79773,-2.792047 0,-0.638183 -0.5584,-1.196592 -1.1567,-1.196592 -0.63818,0 -1.15671,0.558409 -1.15671,1.196592 0,0.07977 0.0399,1.994319 1.11682,3.908865 0.99716,1.755001 3.15103,3.86898 7.6183,3.86898 1.91455,0 3.58978,-0.358978 4.82626,-0.957273 1.1567,-0.598296 2.11397,-1.356137 2.79204,-2.43307 1.07694,-1.794887 1.07694,-3.669548 1.07694,-4.387502 0,-0.638183 0,-2.313411 -0.75785,-4.028526 z" />
      <path
         id="path67"
         d="m 485.2842,-73.64211 c 0.63818,0 1.11682,-0.478637 1.11682,-1.116819 0,0 0,0 0,-0.03989 0,-0.319091 -0.0399,-4.347616 -2.9516,-7.339095 -1.99432,-1.99432 -4.82625,-3.031366 -8.37614,-3.031366 -2.6325,0 -4.82625,0.55841 -6.54137,1.675228 -1.47579,1.037046 -2.67238,2.43307 -3.51,4.267844 -1.35613,3.111138 -1.35613,6.740799 -1.35613,9.173869 0,2.273524 0,6.022844 1.39602,9.173869 0.8775,1.834774 2.0342,3.230797 3.51,4.267843 1.71512,1.116819 3.90887,1.675228 6.50148,1.675228 5.8633,0 8.61546,-2.871819 9.93171,-5.265003 1.39603,-2.592615 1.39603,-5.145344 1.39603,-5.265003 0,-0.638182 -0.47864,-1.116819 -1.11682,-1.116819 -0.63818,0 -1.19659,0.478637 -1.19659,1.116819 0,0.03989 0,2.074092 -1.11682,4.148184 -1.43591,2.712275 -4.1083,4.068412 -7.89751,4.068412 -3.94875,0 -6.54137,-1.475796 -7.8975,-4.547048 -1.19659,-2.752161 -1.19659,-6.142504 -1.19659,-8.256482 0,-6.222277 0.67806,-12.80353 9.09409,-12.80353 2.91171,0 5.14535,0.757841 6.70092,2.353296 0.95727,0.917387 1.67522,2.193752 2.0342,3.709434 0.27921,1.156706 0.27921,1.99432 0.27921,1.99432 0,0 0,0 0,0 0,0.678068 0.55841,1.156705 1.19659,1.156705 z" />
      <path
         id="path69"
         d="m 509.82617,-55.09494 c 0.59829,0 1.11681,-0.518523 1.11681,-1.156705 v -13.760804 c 0,-0.638182 -0.51852,-1.156705 -1.11681,-1.156705 h -16.67251 v -12.683871 c 0,-0.638182 -0.51853,-1.156705 -1.15671,-1.156705 -0.59829,0 -1.11682,0.518523 -1.11682,1.156705 v 13.840576 c 0,0.638182 0.51853,1.156705 1.11682,1.156705 h 16.67251 v 12.604099 c 0,0.638182 0.51852,1.156705 1.15671,1.156705 z m 0,-18.467397 c 0.59829,0 1.11681,-0.518523 1.11681,-1.116819 v -9.173869 c 0,-0.638182 -0.51852,-1.156705 -1.11681,-1.156705 -0.63819,0 -1.15671,0.518523 -1.15671,1.156705 v 9.173869 c 0,0.598296 0.51852,1.116819 1.15671,1.116819 z m -17.82922,18.467397 c 0.63818,0 1.15671,-0.518523 1.15671,-1.156705 v -9.173869 c 0,-0.598296 -0.51853,-1.116819 -1.15671,-1.116819 -0.59829,0 -1.11682,0.518523 -1.11682,1.116819 v 9.173869 c 0,0.638182 0.51853,1.156705 1.11682,1.156705 z" />
      <path
         id="path71"
         d="m 525.52022,-54.975281 c 3.74932,0 6.62114,-1.276364 8.53568,-3.789207 1.03705,-1.276364 1.79489,-2.911706 2.27353,-4.74648 0.43875,-1.87466 0.67806,-4.068411 0.67806,-6.541367 0,-5.105458 -0.8775,-8.775005 -2.67238,-11.247961 -0.99716,-1.276365 -2.23364,-2.273524 -3.74932,-2.87182 -1.39603,-0.678069 -3.11114,-0.957273 -5.06557,-0.957273 -1.95444,0 -3.62967,0.239318 -5.02569,0.797727 -1.51568,0.598296 -2.75216,1.475797 -3.74932,2.712275 -0.99716,1.196591 -1.67523,2.792047 -2.11398,4.74648 -0.43875,1.914546 -0.67807,4.108297 -0.67807,6.820572 0,5.344776 0.99716,9.133982 3.03137,11.567052 1.87466,2.353297 4.66671,3.510002 8.53569,3.510002 z m 0,-27.840698 c 3.27068,0 5.5442,0.957273 7.02,2.951593 1.4758,2.074092 2.19375,5.265003 2.19375,9.812051 0,4.387502 -0.83761,7.698072 -2.39318,9.812051 -1.51569,1.994319 -3.74932,2.951593 -6.82057,2.951593 -3.15103,0 -5.42455,-0.837615 -6.86046,-2.632502 -1.59546,-2.074092 -2.43307,-5.344776 -2.43307,-10.131142 0,-4.826253 0.75784,-8.136823 2.27352,-10.131143 1.39602,-1.794887 3.62966,-2.632501 7.02001,-2.632501 z" />
      <path
         id="path73"
         d="m 550.83872,-54.975281 c 3.74932,0 6.62114,-1.276364 8.53569,-3.789207 1.03704,-1.276364 1.79488,-2.911706 2.27352,-4.74648 0.43875,-1.87466 0.67807,-4.068411 0.67807,-6.541367 0,-5.105458 -0.8775,-8.775005 -2.67239,-11.247961 -0.99716,-1.276365 -2.23364,-2.273524 -3.74932,-2.87182 -1.39602,-0.678069 -3.11114,-0.957273 -5.06557,-0.957273 -1.95443,0 -3.62966,0.239318 -5.02568,0.797727 -1.51569,0.598296 -2.75217,1.475797 -3.74933,2.712275 -0.99715,1.196591 -1.67522,2.792047 -2.11397,4.74648 -0.43875,1.914546 -0.67807,4.108297 -0.67807,6.820572 0,5.344776 0.99716,9.133982 3.03136,11.567052 1.87466,2.353297 4.66671,3.510002 8.53569,3.510002 z m 0,-27.840698 c 3.27068,0 5.54421,0.957273 7.02,2.951593 1.4758,2.074092 2.19376,5.265003 2.19376,9.812051 0,4.387502 -0.83762,7.698072 -2.39319,9.812051 -1.51568,1.994319 -3.74932,2.951593 -6.82057,2.951593 -3.15102,0 -5.42455,-0.837615 -6.86046,-2.632502 -1.59545,-2.074092 -2.43307,-5.344776 -2.43307,-10.131142 0,-4.826253 0.75784,-8.136823 2.27353,-10.131143 1.39602,-1.794887 3.62966,-2.632501 7.02,-2.632501 z" />
      <path
         id="path75"
         d="m 580.98348,-55.09494 c 0.5983,0 1.15671,-0.518523 1.15671,-1.156705 0,-0.638183 -0.55841,-1.116819 -1.15671,-1.116819 h -15.15682 c -0.63818,0 -1.15671,0.478636 -1.15671,1.116819 0,0.638182 0.51853,1.156705 1.15671,1.156705 z m -15.15682,-3.470116 c 0.63818,0 1.11682,-0.478636 1.11682,-1.116819 v -24.17115 c 0,-0.638182 -0.47864,-1.156705 -1.11682,-1.156705 -0.63818,0 -1.15671,0.518523 -1.15671,1.156705 v 24.17115 c 0,0.638183 0.51853,1.116819 1.15671,1.116819 z" />
    </g>
  </g>
</svg>
