<?xml version="1.0" encoding="UTF-8" standalone="no"?>
<!-- Generator: Adobe Illustrator 19.0.0, SVG Export Plug-In . SVG Version: 6.00 Build 0)  -->

<svg
   xmlns:dc="http://purl.org/dc/elements/1.1/"
   xmlns:cc="http://creativecommons.org/ns#"
   xmlns:rdf="http://www.w3.org/1999/02/22-rdf-syntax-ns#"
   xmlns:svg="http://www.w3.org/2000/svg"
   xmlns="http://www.w3.org/2000/svg"
   xmlns:sodipodi="http://sodipodi.sourceforge.net/DTD/sodipodi-0.dtd"
   xmlns:inkscape="http://www.inkscape.org/namespaces/inkscape"
   version="1.1"
   id="Capa_1"
   x="0px"
   y="0px"
   viewBox="0 0 1280.14 515"
   xml:space="preserve"
   sodipodi:docname="like is money fixed.svg"
   inkscape:version="0.92.4 (5da689c313, 2019-01-14)"
   width="1280.14"
   height="515"><metadata
   id="metadata43"><rdf:RDF><cc:Work
       rdf:about=""><dc:format>image/svg+xml</dc:format><dc:type
         rdf:resource="http://purl.org/dc/dcmitype/StillImage" /><dc:title></dc:title></cc:Work></rdf:RDF></metadata><defs
   id="defs41" /><sodipodi:namedview
   pagecolor="#ffffff"
   bordercolor="#666666"
   borderopacity="1"
   objecttolerance="10"
   gridtolerance="10"
   guidetolerance="10"
   inkscape:pageopacity="0"
   inkscape:pageshadow="2"
   inkscape:window-width="1920"
   inkscape:window-height="1017"
   id="namedview39"
   showgrid="false"
   showguides="true"
   inkscape:guide-bbox="true"
   inkscape:zoom="0.49386126"
   inkscape:cx="238.9335"
   inkscape:cy="238.9335"
   inkscape:window-x="-8"
   inkscape:window-y="-8"
   inkscape:window-maximized="1"
   inkscape:current-layer="g1617" />
<g
   id="g6"
   transform="translate(8.0994408,35.108135)">
	<g
   id="g4">
		
	</g>
</g>
<g
   id="g8"
   transform="translate(0,37.132996)">
</g>
<g
   id="g10"
   transform="translate(0,37.132996)">
</g>
<g
   id="g12"
   transform="translate(0,37.132996)">
</g>
<g
   id="g14"
   transform="translate(0,37.132996)">
</g>
<g
   id="g16"
   transform="translate(0,37.132996)">
</g>
<g
   id="g18"
   transform="translate(0,37.132996)">
</g>
<g
   id="g20"
   transform="translate(0,37.132996)">
</g>
<g
   id="g22"
   transform="translate(0,37.132996)">
</g>
<g
   id="g24"
   transform="translate(0,37.132996)">
</g>
<g
   id="g26"
   transform="translate(0,37.132996)">
</g>
<g
   id="g28"
   transform="translate(0,37.132996)">
</g>
<g
   id="g30"
   transform="translate(0,37.132996)">
</g>
<g
   id="g32"
   transform="translate(0,37.132996)">
</g>
<g
   id="g34"
   transform="translate(0,37.132996)">
</g>
<g
   id="g36"
   transform="translate(0,37.132996)">
</g>
<g
   id="g1617"
   transform="translate(4.0497204,18.909254)"><g
     id="g1642"
     transform="translate(-4.0497204,-4.0497204)"><path
       transform="translate(8.0994408,-2.0248602)"
       d="M 392.533,119.467 H 324.266 V 85.333 C 324.21,38.228 286.038,0.056 238.933,0 H 221.866 C 212.441,0 204.8,7.641 204.8,17.067 v 102.4 H 17.067 C 7.641,119.467 0,127.108 0,136.533 V 460.8 c 0,9.426 7.641,17.067 17.067,17.067 h 375.467 c 47.105,-0.056 85.277,-38.228 85.333,-85.333 V 204.8 c -0.057,-47.105 -38.229,-85.277 -85.334,-85.333 z m -307.2,324.266 h -51.2 V 153.6 h 51.2 z m 68.267,0 H 119.467 V 153.6 H 153.6 Z m 290.133,-51.2 c 0,28.277 -22.923,51.2 -51.2,51.2 h -204.8 V 153.6 h 34.133 c 9.426,0 17.067,-7.641 17.067,-17.067 v -102.4 c 28.277,0 51.2,22.923 51.2,51.2 v 51.2 c 0,9.426 7.641,17.067 17.067,17.067 h 85.333 c 28.277,0 51.2,22.923 51.2,51.2 z"
       id="path2"
       inkscape:connector-curvature="0" /><g
       id="g871"
       transform="translate(-52.646365,167.05097)"><rect
         y="32.397762"
         x="611.50775"
         height="62.770664"
         width="291.57986"
         id="rect45"
         style="opacity:1;fill:none;fill-opacity:1;stroke:#000000;stroke-width:20;stroke-miterlimit:4;stroke-dasharray:none;stroke-opacity:1" /><rect
         y="134.6532"
         x="611.50775"
         height="62.770664"
         width="291.57986"
         id="rect45-4"
         style="opacity:1;fill:none;fill-opacity:1;stroke:#000000;stroke-width:20;stroke-miterlimit:4;stroke-dasharray:none;stroke-opacity:1" /></g><g
       id="g1589"
       transform="translate(873.74768,-2.02486)"
       style="fill:none;fill-opacity:1;stroke:#000000;stroke-width:20;stroke-miterlimit:4;stroke-dasharray:none;stroke-opacity:1"><g
         id="g1532"
         style="fill:none;fill-opacity:1;stroke:#000000;stroke-width:20;stroke-miterlimit:4;stroke-dasharray:none;stroke-opacity:1">
	<g
   id="g1530"
   style="fill:none;fill-opacity:1;stroke:#000000;stroke-width:20;stroke-miterlimit:4;stroke-dasharray:none;stroke-opacity:1">
		<path
   id="path1528"
   d="m 370.5,254 c -14.667,-11.333 -36.667,-20.667 -66,-28 l -23,-5 v -97 c 0.667,0.667 1.333,1 2,1 0.667,0 1,0.333 1,1 19.334,9.333 29.668,25.333 31,48 h 77 c -1.333,-40 -16.333,-70.667 -45,-92 -18.667,-14 -40.667,-23.333 -66,-28 V 0 h -71 v 52 c -33.333,4 -59.667,14.667 -79,32 -25.333,22.667 -38,51.334 -38,86 0,37.333 13,65 39,83 14,10 40,19.333 78,28 v 104 c -14,-4 -24.667,-10.333 -32,-19 -8,-9.333 -13,-22 -15,-38 h -76 c 0,39.333 14.333,70.333 43,93 20.667,16 47.333,26.333 80,31 v 40 h 71 v -39 c 34.667,-4.667 62.333,-15.667 83,-33 26.667,-23.333 40,-52.667 40,-88 0,-34 -11.333,-60 -34,-78 z m -160,-50 c -11.333,-3.333 -19.333,-6.333 -24,-9 -12.667,-6.667 -19,-17 -19,-31 0,-15.333 6.333,-27 19,-35 6.667,-4 14.667,-7.333 24,-10 z m 83,179 c -3.333,1.333 -7.333,2.333 -12,3 v -89 c 12.667,4 22.333,8 29,12 11.333,7.333 17,17.333 17,30 0,21.333 -11.333,36 -34,44 z"
   style="fill:none;fill-opacity:1;stroke:#000000;stroke-width:20;stroke-miterlimit:4;stroke-dasharray:none;stroke-opacity:1"
   inkscape:connector-curvature="0" />
	</g>
</g><g
         id="g1534"
         style="fill:none;fill-opacity:1;stroke:#000000;stroke-width:20;stroke-miterlimit:4;stroke-dasharray:none;stroke-opacity:1">
</g><g
         id="g1536"
         style="fill:none;fill-opacity:1;stroke:#000000;stroke-width:20;stroke-miterlimit:4;stroke-dasharray:none;stroke-opacity:1">
</g><g
         id="g1538"
         style="fill:none;fill-opacity:1;stroke:#000000;stroke-width:20;stroke-miterlimit:4;stroke-dasharray:none;stroke-opacity:1">
</g><g
         id="g1540"
         style="fill:none;fill-opacity:1;stroke:#000000;stroke-width:20;stroke-miterlimit:4;stroke-dasharray:none;stroke-opacity:1">
</g><g
         id="g1542"
         style="fill:none;fill-opacity:1;stroke:#000000;stroke-width:20;stroke-miterlimit:4;stroke-dasharray:none;stroke-opacity:1">
</g><g
         id="g1544"
         style="fill:none;fill-opacity:1;stroke:#000000;stroke-width:20;stroke-miterlimit:4;stroke-dasharray:none;stroke-opacity:1">
</g><g
         id="g1546"
         style="fill:none;fill-opacity:1;stroke:#000000;stroke-width:20;stroke-miterlimit:4;stroke-dasharray:none;stroke-opacity:1">
</g><g
         id="g1548"
         style="fill:none;fill-opacity:1;stroke:#000000;stroke-width:20;stroke-miterlimit:4;stroke-dasharray:none;stroke-opacity:1">
</g><g
         id="g1550"
         style="fill:none;fill-opacity:1;stroke:#000000;stroke-width:20;stroke-miterlimit:4;stroke-dasharray:none;stroke-opacity:1">
</g><g
         id="g1552"
         style="fill:none;fill-opacity:1;stroke:#000000;stroke-width:20;stroke-miterlimit:4;stroke-dasharray:none;stroke-opacity:1">
</g><g
         id="g1554"
         style="fill:none;fill-opacity:1;stroke:#000000;stroke-width:20;stroke-miterlimit:4;stroke-dasharray:none;stroke-opacity:1">
</g><g
         id="g1556"
         style="fill:none;fill-opacity:1;stroke:#000000;stroke-width:20;stroke-miterlimit:4;stroke-dasharray:none;stroke-opacity:1">
</g><g
         id="g1558"
         style="fill:none;fill-opacity:1;stroke:#000000;stroke-width:20;stroke-miterlimit:4;stroke-dasharray:none;stroke-opacity:1">
</g><g
         id="g1560"
         style="fill:none;fill-opacity:1;stroke:#000000;stroke-width:20;stroke-miterlimit:4;stroke-dasharray:none;stroke-opacity:1">
</g><g
         id="g1562"
         style="fill:none;fill-opacity:1;stroke:#000000;stroke-width:20;stroke-miterlimit:4;stroke-dasharray:none;stroke-opacity:1">
</g></g></g></g></svg>