<?xml version="1.0" encoding="UTF-8" standalone="no"?>
<!-- Created with Inkscape (http://www.inkscape.org/) -->

<svg
   xmlns:dc="http://purl.org/dc/elements/1.1/"
   xmlns:cc="http://creativecommons.org/ns#"
   xmlns:rdf="http://www.w3.org/1999/02/22-rdf-syntax-ns#"
   xmlns:svg="http://www.w3.org/2000/svg"
   xmlns="http://www.w3.org/2000/svg"
   xmlns:sodipodi="http://sodipodi.sourceforge.net/DTD/sodipodi-0.dtd"
   xmlns:inkscape="http://www.inkscape.org/namespaces/inkscape"
   version="1.1"
   id="svg3713"
   width="1170.71"
   height="632.664"
   viewBox="0 0 1170.71 632.664"
   sodipodi:docname="MarketPlaceBanner.svg"
   inkscape:version="0.92.4 (5da689c313, 2019-01-14)">
  <metadata
     id="metadata3719">
    <rdf:RDF>
      <cc:Work
         rdf:about="">
        <dc:format>image/svg+xml</dc:format>
        <dc:type
           rdf:resource="http://purl.org/dc/dcmitype/StillImage" />
        <dc:title />
      </cc:Work>
    </rdf:RDF>
  </metadata>
  <defs
     id="defs3717" />
  <sodipodi:namedview
     pagecolor="#ffffff"
     bordercolor="#666666"
     borderopacity="1"
     objecttolerance="10"
     gridtolerance="10"
     guidetolerance="10"
     inkscape:pageopacity="0"
     inkscape:pageshadow="2"
     inkscape:window-width="1366"
     inkscape:window-height="705"
     id="namedview3715"
     showgrid="false"
     inkscape:zoom="0.5315347"
     inkscape:cx="298.96229"
     inkscape:cy="374.6721"
     inkscape:window-x="-8"
     inkscape:window-y="-8"
     inkscape:window-maximized="1"
     inkscape:current-layer="svg3713"
     showguides="true"
     inkscape:guide-bbox="true" />
  <flowRoot
     xml:space="preserve"
     id="flowRoot5129"
     style="font-style:normal;font-weight:normal;font-size:40px;line-height:1.25;font-family:sans-serif;letter-spacing:0px;word-spacing:0px;fill:#000000;fill-opacity:1;stroke:none"
     transform="translate(167.43968,397.18938)"><flowRegion
       id="flowRegion5131"><rect
         id="rect5133"
         width="226.70204"
         height="112.88068"
         x="354.63348"
         y="-185.94659" /></flowRegion><flowPara
       id="flowPara5137" /></flowRoot>  <flowRoot
     xml:space="preserve"
     id="flowRoot5141"
     style="font-style:normal;font-weight:normal;font-size:40px;line-height:1.25;font-family:sans-serif;letter-spacing:0px;word-spacing:0px;fill:#000000;fill-opacity:1;stroke:none"
     transform="translate(167.43968,397.18938)"><flowRegion
       id="flowRegion5143"><rect
         id="rect5145"
         width="262.4476"
         height="158.03296"
         x="398.84509"
         y="-161.48912" /></flowRegion><flowPara
       id="flowPara5147" /></flowRoot>  <rect
     style="opacity:1;fill:#ff9800;fill-opacity:1;stroke:none;stroke-width:7.06744719;stroke-opacity:1"
     id="rect4603"
     width="1170.7137"
     height="632.66443"
     x="1.1524144"
     y="0.72857815" />
  <path
     style="opacity:1;fill:#000000;fill-opacity:1;stroke-width:0.84440142"
     d="m 375.01232,506.10681 c -0.99284,-0.6954 -6.30211,-3.3146 -11.79841,-5.82042 -5.49628,-2.50584 -15.88295,-7.40392 -23.08146,-10.88465 -13.55646,-6.55498 -23.73178,-11.37505 -34.62047,-16.39978 -3.48315,-1.60735 -6.92308,-3.45248 -7.64427,-4.10031 -1.13742,-1.02167 -3.37758,-0.3613 -16.89583,4.98069 -8.5715,3.38719 -17.40389,7.22473 -19.62754,8.52788 -5.34676,3.13341 -10.91995,2.79855 -15.14363,-0.9099 -1.55634,-1.36647 -10.92327,-6.58603 -20.81542,-11.59901 l -17.98573,-9.11452 -1.81897,1.70433 c -1.42593,1.33604 -30.98563,16.17042 -32.22198,16.17042 -0.16358,0 -8.20907,3.8457 -17.87886,8.54599 -24.44893,11.88415 -27.94661,13.40845 -30.76712,13.40845 -1.36027,0 -5.59964,-1.57313 -9.4208,-3.49584 -3.82117,-1.92271 -13.21725,-6.4364 -20.880183,-10.03041 -37.363234,-17.52384 -50.399489,-23.90498 -52.128861,-25.5166 -1.037841,-0.96718 -2.071417,-2.93267 -2.296844,-4.36777 -0.225445,-1.43509 -0.82813,-23.79173 -1.339337,-49.6814 -0.921172,-46.65296 -0.91424,-47.09288 0.77793,-49.3975 1.110392,-1.51226 5.190979,-3.93184 11.67032,-6.91989 10.721081,-4.94418 37.518777,-17.52134 53.758055,-25.23068 l 10.01907,-4.75638 -0.30845,-26.47391 -0.30846,-26.47392 2.75763,-2.46625 c 1.51669,-1.35645 3.60029,-2.46626 4.63022,-2.46626 1.02993,0 11.89024,-3.51482 24.13402,-7.8107 l 22.26141,-7.81072 -0.6058,-38.04383 -0.60582,-38.04383 2.00162,-2.24129 c 1.10089,-1.2327 3.90151,-2.97643 6.22362,-3.87493 2.32211,-0.8985 12.39159,-5.51453 22.37663,-10.25784 9.98505,-4.74331 20.8145,-9.87276 24.06545,-11.39879 3.25094,-1.52601 10.04853,-4.71535 15.10577,-7.08743 5.05721,-2.37207 9.77212,-4.31285 10.47755,-4.31285 0.70542,0 4.54728,1.48418 8.53747,3.29817 3.99018,1.81401 17.13437,7.74512 29.20931,13.18027 12.07494,5.43514 27.23756,12.31054 33.69471,15.27865 6.45716,2.96811 12.18563,5.39657 12.72993,5.39657 0.54431,0 1.91084,0.98029 3.03676,2.17844 l 2.04708,2.17843 0.23412,41.20024 0.23412,41.20023 7.3655,3.82986 c 4.05102,2.10642 11.1653,5.85992 15.80951,8.34113 12.03744,6.4311 15.71884,8.1746 18.43845,8.73249 1.31715,0.27018 3.37126,1.46767 4.56467,2.66109 l 2.16984,2.16984 -0.56153,24.60556 -0.56155,24.60556 14.9959,6.7085 c 13.36295,5.97797 32.14179,14.44861 53.41617,24.09457 3.94758,1.78987 7.87094,4.17484 8.71859,5.29994 1.44626,1.91965 1.55027,5.03866 1.6888,50.63972 0.17189,56.57952 1.45527,50.17777 -11.25179,56.12618 -4.412,2.06534 -10.68168,5.04183 -13.93262,6.61442 -37.20752,17.99857 -56.00146,26.57437 -58.23799,26.57437 -1.43294,0 -3.41766,-0.56897 -4.4105,-1.26438 z m 26.87419,-27.76692 c 14.04956,-6.74837 25.84755,-12.35641 36.85937,-17.52067 l 6.99587,-3.28089 -0.0928,-35.88046 c -0.0511,-19.73426 -0.32725,-35.88048 -0.61383,-35.88048 -0.50789,0 -11.25445,4.51466 -41.78367,17.55348 l -14.98813,6.40131 v 37.42007 c 0,20.58106 0.14575,37.42011 0.32388,37.42011 0.17813,0 6.16282,-2.80461 13.29931,-6.23247 z m -32.20002,-32.06534 v -37.45338 l -7.81071,-3.63604 c -4.29589,-1.99983 -11.23054,-5.04904 -15.41033,-6.77604 -4.17979,-1.72698 -13.10933,-5.60203 -19.84343,-8.61121 -6.7341,-3.00918 -13.06342,-5.72918 -14.06516,-6.04444 l -1.82134,-0.57319 0.35335,18.8199 c 0.48925,26.05809 0.94365,39.55452 1.34522,39.95609 0.18737,0.18737 7.54082,-2.49674 16.34102,-5.96466 19.64501,-7.74158 23.07592,-7.99767 26.20035,-1.9557 1.68333,3.25521 1.01456,7.50845 -1.5701,9.9854 -1.03042,0.98749 -7.95319,4.20011 -15.38392,7.13917 -7.43073,2.93905 -14.98979,5.96272 -16.79791,6.71926 l -3.28749,1.37552 8.3539,4.02476 c 4.59464,2.21361 10.78015,5.1551 13.74558,6.53664 2.96542,1.38155 10.56504,5.04861 16.88803,8.14904 6.32299,3.10042 11.78133,5.66529 12.12964,5.6997 0.34832,0.0344 0.6333,-16.79144 0.6333,-37.39082 z M 137.6172,476.21912 c 3.52244,-1.53851 8.93631,-4.11221 38.26392,-18.19034 l 13.49515,-6.47807 -8.00655,-4.23877 c -4.40361,-2.33134 -11.6527,-6.116 -16.10909,-8.41037 -8.269,-4.25728 -10.0521,-6.11662 -10.0521,-10.48191 0,-4.60079 4.28965,-8.86621 8.91657,-8.86621 0.81617,0 7.13591,2.86179 14.04387,6.35953 l 12.55994,6.35953 -0.0914,-26.62516 c -0.0503,-14.64385 -0.22283,-26.62518 -0.38347,-26.62518 -0.16065,0 -9.53654,3.92582 -20.8353,8.72404 -11.29878,4.79823 -24.05805,10.19785 -28.35393,11.99916 l -7.81071,3.27509 v 37.39834 c 0,20.56908 0.15848,37.39834 0.35218,37.39834 0.19372,0 1.99862,-0.71911 4.01091,-1.59802 z m -23.14233,-36.87818 -0.2198,-37.63179 -5.91081,-2.56687 c -6.30672,-2.73878 -25.684228,-11.21598 -42.079943,-18.40894 -5.495975,-2.41115 -10.12853,-4.24805 -10.294574,-4.08201 -0.166044,0.16605 0.04248,15.30167 0.46342,33.63474 0.420916,18.33304 0.778695,34.7827 0.795065,36.55477 l 0.02974,3.22195 12.454912,5.92988 c 6.850204,3.26144 16.824702,7.99607 22.165541,10.52142 5.340831,2.52533 12.370479,5.88325 15.621419,7.46202 3.25095,1.57877 6.19971,2.89887 6.55281,2.93356 0.3531,0.0347 0.54309,-16.87124 0.4222,-37.56873 z m 160.51894,18.01522 19.72372,-7.80224 -0.5081,-17.32234 c -0.27947,-9.52728 -0.74513,-28.16467 -1.03481,-41.41642 l -0.5267,-24.09407 2.17839,-2.58887 c 1.19812,-1.42389 3.90374,-3.24781 6.01249,-4.05315 2.10877,-0.80533 16.21289,-7.30808 31.3425,-14.45053 15.12961,-7.14246 28.9592,-13.62638 30.73242,-14.40871 l 3.22403,-1.42245 0.58042,-14.44117 c 0.31923,-7.94264 0.45272,-16.4771 0.29666,-18.96545 l -0.28375,-4.52428 -12.66601,-6.69276 c -6.96631,-3.68102 -14.18595,-7.46693 -16.04363,-8.41313 l -3.3776,-1.72035 -25.75424,12.37278 c -14.16484,6.80503 -31.1799,14.98976 -37.81125,18.18829 -18.48066,8.91385 -16.3653,8.77073 -30.2359,2.04584 -13.44097,-6.51658 -29.02955,-13.94475 -35.81423,-17.06597 -16.53561,-7.60703 -33.53282,-16.17858 -34.54948,-17.42301 -0.65759,-0.80491 -1.41754,-2.71786 -1.6888,-4.25098 l -0.49318,-2.7875 -18.23019,6.39197 -18.23019,6.39196 0.37674,23.24953 c 0.25675,15.84459 0.68423,23.55962 1.34217,24.22313 0.53098,0.53548 5.33519,2.86716 10.67603,5.18149 5.34083,2.31435 12.56047,5.55253 16.04362,7.19598 6.56695,3.09846 16.81274,7.70047 34.19826,15.36055 6.07464,2.67649 10.70147,5.26102 11.55269,6.45328 1.25626,1.75962 1.49949,6.54525 2.111,41.53545 l 0.69114,39.54667 22.79884,11.73394 c 12.53935,6.45366 22.98882,11.74312 23.22103,11.75434 0.23222,0.0112 9.29788,-3.49059 20.14591,-7.78182 z m 114.20051,-69.78908 c 4.8288,-1.85281 16.092,-6.13885 25.02936,-9.52455 15.96621,-6.0484 16.20931,-6.17721 13.93262,-7.38313 -1.81441,-0.96107 -39.25411,-18.08013 -43.90388,-20.07478 -0.80933,-0.34718 -1.05551,1.80366 -1.05551,9.22217 0,5.32124 -0.40841,10.84653 -0.90758,12.27845 -2.4394,6.99767 -13.44639,7.23627 -16.08364,0.34866 -0.48158,-1.25775 -0.7626,-6.81597 -0.62747,-12.41077 0.28781,-11.9153 0.96127,-11.52145 -10.20233,-5.96649 -3.97189,1.9764 -12.44637,5.98978 -18.83215,8.91861 -6.38578,2.92885 -11.61052,5.61072 -11.61052,5.95975 0,0.34901 2.37488,1.57883 5.27751,2.73292 5.50187,2.18755 36.5564,15.64595 42.43116,18.38882 4.15984,1.94217 5.54527,1.73379 16.55243,-2.48966 z m -247.19657,-9.4274 c 9.82025,-3.73632 21.08483,-7.98088 25.0324,-9.43238 3.94758,-1.45148 7.47592,-2.89179 7.84075,-3.20066 0.36484,-0.30888 -1.91505,-1.73356 -5.06641,-3.16594 -29.18327,-13.26465 -35.82719,-16.25018 -36.16274,-16.25018 -0.21321,0 -0.38764,2.69786 -0.38764,5.99524 0,5.69226 -0.1451,6.14034 -2.87097,8.86621 -3.19147,3.19148 -5.88036,3.62874 -9.81196,1.59562 -3.69174,-1.90906 -4.54569,-4.21557 -5.03048,-13.58714 l -0.44123,-8.52949 -7.59962,3.6423 c -20.703713,9.92272 -34.326719,16.29904 -35.867874,16.78819 -3.621704,1.14948 -4.992261,0.44847 33.756884,17.26575 8.59178,3.72886 16.32623,6.78561 17.18765,6.79277 0.86144,0.007 9.60099,-3.04397 19.42124,-6.78029 z M 298.75678,272.88115 c 5.34083,-2.54453 11.13554,-5.20368 12.87712,-5.90927 1.74158,-0.70558 3.1665,-1.58948 3.1665,-1.96423 0,-0.37475 -6.74465,-4.16025 -14.98812,-8.41222 -8.24347,-4.25197 -15.85487,-8.57929 -16.91423,-9.61626 -5.88785,-5.76344 -0.28109,-16.14137 7.7725,-14.38661 1.42869,0.31128 5.44747,2.17728 8.93062,4.14665 7.70134,4.35432 18.29131,9.71194 19.19682,9.71194 0.62548,0 0.38299,-54.11232 -0.24545,-54.77631 -0.16263,-0.17183 -7.24808,2.62122 -15.74543,6.20676 -8.49737,3.58554 -21.05175,8.85587 -27.89863,11.71183 l -12.44888,5.19266 -0.006,37.7366 -0.006,37.73659 13.29932,-6.37588 c 7.31463,-3.50673 17.6691,-8.45774 23.00994,-11.00225 z m -54.8861,-21.17847 v -37.81294 l -2.3221,-0.94507 c -6.29623,-2.56249 -20.21004,-8.54377 -37.57587,-16.15316 l -19.21012,-8.41752 v 9.90376 c 0,5.44707 0.24896,17.33741 0.55324,26.42297 l 0.55324,16.51922 10.57486,-3.75136 c 11.85837,-4.20667 14.01991,-4.22888 17.42768,-0.17899 3.29152,3.91176 2.55418,10.49941 -1.41446,12.63735 -1.06718,0.57489 -7.45004,3.03488 -14.18414,5.46661 -7.13673,2.57714 -12.24383,4.87502 -12.24383,5.50899 0,1.30075 0.49803,1.56103 25.75425,13.45932 10.91389,5.14157 22.5033,10.64637 25.75424,12.23287 3.25095,1.58651 6.00581,2.89273 6.12192,2.90272 0.1161,0.01 0.21109,-16.99765 0.21109,-37.79477 z m 21.95444,-59.75229 c 39.79325,-14.75618 39.17581,-14.50278 37.49831,-15.38929 -1.37028,-0.72416 -10.36863,-4.80566 -50.8005,-23.0423 l -5.28038,-2.3817 -14.56305,6.80319 c -8.00969,3.74175 -18.85436,8.81234 -24.09928,11.26799 -5.24494,2.45564 -9.42946,4.78568 -9.29895,5.17787 0.22323,0.67088 11.06184,5.80523 17.56856,8.3224 1.62548,0.62882 9.98505,4.21054 18.57684,7.95936 8.59178,3.74883 16.1914,6.59256 16.88803,6.31941 0.69662,-0.27316 6.77631,-2.53978 13.51042,-5.03693 z"
     id="path4578"
     inkscape:connector-curvature="0"
     sodipodi:nodetypes="sccccsccsccsssssccsccsccccsscccscsccsssssscccsscscccsscscsssscccsscsssscccsscscsscsscscscscscsssssccscccsscccccsccccsccccsccscccsccsscsccsssssccccscccscscscscscssscsscscccsccsssssscscscscsssscsscsccccsccscsscsscsccsssccsscscscccsss" />
  <rect
     style="opacity:0.52600002;fill:#007cff;fill-opacity:0"
     id="rect4601"
     width="104.41463"
     height="75.253792"
     x="158.03297"
     y="290.25928" />
  <flowRoot
     xml:space="preserve"
     id="flowRoot879"
     style="fill:black;fill-opacity:1;stroke:none;font-family:'ONE DAY';font-style:normal;font-weight:normal;font-size:40px;line-height:1.25;letter-spacing:0px;word-spacing:0px;-inkscape-font-specification:'ONE DAY';font-stretch:normal;font-variant:normal;"><flowRegion
       id="flowRegion881"
       style="-inkscape-font-specification:'ONE DAY';font-family:'ONE DAY';font-weight:normal;font-style:normal;font-stretch:normal;font-variant:normal;"><rect
         id="rect883"
         width="445.87869"
         height="361.2182"
         x="652.8266"
         y="188.66664"
         style="-inkscape-font-specification:'ONE DAY';font-family:'ONE DAY';font-weight:normal;font-style:normal;font-stretch:normal;font-variant:normal;" /></flowRegion><flowPara
       id="flowPara885" /></flowRoot>  <g
     aria-label="MARKETPLACE"
     transform="matrix(0.94829198,0,0,0.94829198,165.36717,435.57837)"
     style="font-style:normal;font-weight:normal;font-size:40px;line-height:1.25;font-family:sans-serif;letter-spacing:0px;word-spacing:0px;fill:#000000;fill-opacity:1;stroke:none"
     id="flowRoot887">
    <path
       d="m 417.55108,-90.433594 q -1.152,0 -1.92,-0.768 -0.768,-0.768 -0.768,-1.92 v -56.927996 l -22.368,36.192 q -0.96,1.248 -2.4,1.248 -1.536,0 -2.304,-1.248 l -22.176,-36.192 v 56.927996 q 0,1.152 -0.768,1.92 -0.768,0.768 -1.92,0.768 -1.152,0 -2.016,-0.768 -0.768,-0.768 -0.768,-1.92 v -66.623996 q 0,-0.864 0.48,-1.632 0.576,-0.768 1.536,-0.96 0.864,-0.288 1.728,0.096 0.864,0.288 1.344,1.056 l 24.864,40.608 25.152,-40.608 q 0.48,-0.768 1.344,-1.056 0.864,-0.384 1.728,-0.096 0.96,0.192 1.44,0.96 0.576,0.768 0.576,1.632 v 66.623996 q 0,1.152 -0.864,1.92 -0.768,0.768 -1.92,0.768 z"
       style="font-style:normal;font-variant:normal;font-weight:normal;font-stretch:normal;font-size:96px;font-family:'ONE DAY';-inkscape-font-specification:'ONE DAY'"
       id="path830" />
    <path
       d="m 488.33008,-94.273594 q 0.48,1.056 0,2.112 -0.48,1.056 -1.536,1.536 -1.056,0.48 -2.112,0.096 -0.96,-0.48 -1.44,-1.536 l -24.672,-60.383996 -24.864,60.383996 q -0.96,1.632 -2.592,1.632 -0.672,0 -1.056,-0.192 -1.056,-0.48 -1.536,-1.536 -0.48,-1.056 0,-2.112 l 27.552,-66.527996 q 0.672,-1.632 2.496,-1.632 1.824,0 2.496,1.632 z m -20.064,-15.551996 h -19.584 q -1.152,0 -2.016,-0.768 -0.768,-0.864 -0.768,-2.016 0,-1.152 0.768,-1.92 0.864,-0.864 2.016,-0.864 h 19.584 q 1.152,0 1.92,0.864 0.864,0.768 0.864,1.92 0,1.152 -0.864,2.016 -0.768,0.768 -1.92,0.768 z"
       style="font-style:normal;font-variant:normal;font-weight:normal;font-stretch:normal;font-size:96px;font-family:'ONE DAY';-inkscape-font-specification:'ONE DAY'"
       id="path832" />
    <path
       d="m 547.20208,-95.041594 q 0.768,0.768 0.672,1.92 0,1.152 -0.864,1.92 -0.768,0.768 -1.92,0.768 -1.248,0 -1.92,-0.96 l -19.776,-21.215996 h -23.136 v 19.487996 q 0,1.056 -0.864,1.92 -0.864,0.768 -1.92,0.768 -1.152,0 -2.016,-0.768 -0.768,-0.864 -0.768,-1.92 v -66.527996 q 0,-1.152 0.768,-1.92 0.864,-0.864 2.016,-0.864 h 23.424 q 0.288,0 2.112,0.192 1.824,0.096 4.512,0.768 2.688,0.672 5.76,2.208 3.072,1.44 5.856,4.128 6.624,6.528 6.624,17.568 0,7.2 -2.304,12.384 -1.92,4.32 -5.664,7.584 -0.96,0.768 -2.112,0.672 -1.056,-0.192 -1.824,-0.96 -0.768,-0.864 -0.576,-2.016 0.192,-1.152 0.96,-1.92 5.952,-4.992 5.952,-15.744 0,-8.832 -4.896,-13.728 -2.208,-2.208 -4.8,-3.264 -2.496,-1.152 -4.416,-1.632 -2.304,-0.384 -3.744,-0.576 -0.864,-0.096 -1.44,-0.096 h -20.64 v 38.688 h 24.48 q 1.056,0 1.92,0.864 l 20.544,22.271996 z"
       style="font-style:normal;font-variant:normal;font-weight:normal;font-stretch:normal;font-size:96px;font-family:'ONE DAY';-inkscape-font-specification:'ONE DAY'"
       id="path834" />
    <path
       d="m 601.31908,-94.849594 q 0.672,0.96 0.48,2.112 -0.096,1.056 -1.056,1.824 -0.576,0.48 -1.632,0.48 -1.44,0 -2.112,-0.96 l -27.552,-35.711996 -9.408,10.752 v 23.231996 q 0,1.056 -0.768,1.92 -0.768,0.768 -1.92,0.768 -1.152,0 -2.016,-0.768 -0.768,-0.864 -0.768,-1.92 v -24.287996 q 0,-0.864 0.672,-1.728 l 36.48,-42.24 q 0.768,-0.96 1.92,-1.056 1.152,-0.096 2.016,0.672 0.864,0.768 0.96,1.92 0.096,1.152 -0.672,2.016 l -22.944,26.496 z m -43.968,-35.327996 q -1.152,0 -2.016,-0.768 -0.768,-0.768 -0.768,-1.92 v -26.784 q 0,-1.056 0.768,-1.92 0.864,-0.864 2.016,-0.864 1.152,0 1.92,0.864 0.768,0.864 0.768,1.92 v 26.784 q 0,1.152 -0.768,1.92 -0.768,0.768 -1.92,0.768 z"
       style="font-style:normal;font-variant:normal;font-weight:normal;font-stretch:normal;font-size:96px;font-family:'ONE DAY';-inkscape-font-specification:'ONE DAY'"
       id="path836" />
    <path
       d="m 612.10558,-139.96959 q -1.152,0 -1.92,-0.768 -0.768,-0.864 -0.768,-2.016 v -16.992 q 0,-1.152 0.768,-1.92 0.768,-0.768 1.92,-0.768 h 40.128 q 1.152,0 1.92,0.768 0.768,0.768 0.768,1.92 0,1.152 -0.768,2.016 -0.768,0.768 -1.92,0.768 h -37.344 v 14.208 q 0,1.152 -0.864,2.016 -0.768,0.768 -1.92,0.768 z m 40.128,49.439996 h -40.128 q -1.152,0 -1.92,-0.768 -0.768,-0.768 -0.768,-1.92 v -38.015996 q 0,-1.152 0.768,-1.92 0.768,-0.864 1.92,-0.864 h 30.432 q 1.152,0 1.92,0.864 0.864,0.768 0.864,1.92 0,1.056 -0.864,1.92 -0.768,0.768 -1.92,0.768 h -27.648 v 32.543996 h 37.344 q 1.152,0 1.92,0.864 0.768,0.768 0.768,1.92 0,1.152 -0.768,1.92 -0.768,0.768 -1.92,0.768 z"
       style="font-style:normal;font-variant:normal;font-weight:normal;font-stretch:normal;font-size:96px;font-family:'ONE DAY';-inkscape-font-specification:'ONE DAY'"
       id="path838" />
    <path
       d="m 707.61808,-156.96159 h -45.504 q -1.152,0 -2.016,-0.768 -0.768,-0.864 -0.768,-1.92 0,-1.152 0.768,-1.92 0.864,-0.864 2.016,-0.864 h 45.504 q 1.152,0 1.92,0.864 0.864,0.768 0.864,1.92 0,1.056 -0.864,1.92 -0.768,0.768 -1.92,0.768 z m -22.848,66.527996 q -1.248,0 -2.016,-0.768 -0.768,-0.864 -0.768,-2.016 v -56.927996 q 0,-1.056 0.768,-1.824 0.768,-0.864 2.016,-0.864 1.152,0 1.92,0.864 0.864,0.768 0.864,1.824 v 56.927996 q 0,1.152 -0.864,2.016 -0.768,0.768 -1.92,0.768 z"
       style="font-style:normal;font-variant:normal;font-weight:normal;font-stretch:normal;font-size:96px;font-family:'ONE DAY';-inkscape-font-specification:'ONE DAY'"
       id="path840" />
    <path
       d="m 764.02858,-155.52159 q 6.624,6.528 6.624,17.856 0,4.8 -1.152,8.448 -1.056,3.648 -2.784,6.336 -1.728,2.592 -3.84,4.32 -2.112,1.728 -4.128,2.784 -2.208,1.152 -4.32,1.824 -2.016,0.672 -3.648,0.96 -1.632,0.288 -2.688,0.384 -1.056,0 -1.152,0 h -2.88 q -1.056,0 -1.92,-0.768 -0.768,-0.864 -0.768,-1.92 0,-1.248 0.768,-2.016 0.864,-0.864 1.92,-0.864 h 2.88 q 0,0 0.864,0 0.864,-0.096 2.112,-0.288 1.344,-0.288 2.976,-0.768 1.728,-0.48 3.456,-1.44 8.736,-4.704 8.736,-16.992 0,-8.928 -4.896,-14.016 -3.36,-3.168 -8.448,-4.608 -2.016,-0.48 -3.36,-0.48 -1.344,-0.096 -1.44,-0.096 h -21.888 v 38.688 h 9.408 q 1.152,0 1.92,0.864 0.864,0.768 0.864,2.016 0,1.056 -0.864,1.92 -0.768,0.768 -1.92,0.768 h -9.408 v 19.487996 q 0,1.056 -0.864,1.92 -0.768,0.768 -1.92,0.768 -1.152,0 -1.92,-0.768 -0.768,-0.864 -0.768,-1.92 v -66.623996 q 0,-1.056 0.768,-1.824 0.768,-0.864 1.92,-0.864 h 24.672 q 0.192,0 1.92,0.192 1.728,0.096 4.224,0.768 2.496,0.576 5.376,2.016 2.976,1.344 5.568,3.936 z"
       style="font-style:normal;font-variant:normal;font-weight:normal;font-stretch:normal;font-size:96px;font-family:'ONE DAY';-inkscape-font-specification:'ONE DAY'"
       id="path842" />
    <path
       d="m 814.46908,-90.433594 h -36.48 q -1.152,0 -2.016,-0.768 -0.768,-0.864 -0.768,-2.016 0,-1.152 0.768,-1.92 0.864,-0.768 2.016,-0.768 h 36.48 q 1.056,0 1.92,0.768 0.864,0.768 0.864,1.92 0,1.152 -0.864,2.016 -0.864,0.768 -1.92,0.768 z m -36.48,-8.352 q -1.152,0 -2.016,-0.768 -0.768,-0.767996 -0.768,-1.919996 v -58.176 q 0,-1.152 0.768,-1.92 0.864,-0.864 2.016,-0.864 1.152,0 1.92,0.864 0.768,0.768 0.768,1.92 v 58.176 q 0,1.152 -0.768,1.919996 -0.768,0.768 -1.92,0.768 z"
       style="font-style:normal;font-variant:normal;font-weight:normal;font-stretch:normal;font-size:96px;font-family:'ONE DAY';-inkscape-font-specification:'ONE DAY'"
       id="path844" />
    <path
       d="m 883.76758,-94.273594 q 0.48,1.056 0,2.112 -0.48,1.056 -1.536,1.536 -1.056,0.48 -2.112,0.096 -0.96,-0.48 -1.44,-1.536 l -24.672,-60.383996 -24.864,60.383996 q -0.96,1.632 -2.592,1.632 -0.672,0 -1.056,-0.192 -1.056,-0.48 -1.536,-1.536 -0.48,-1.056 0,-2.112 l 27.552,-66.527996 q 0.672,-1.632 2.496,-1.632 1.824,0 2.496,1.632 z m -20.064,-15.551996 h -19.584 q -1.152,0 -2.016,-0.768 -0.768,-0.864 -0.768,-2.016 0,-1.152 0.768,-1.92 0.864,-0.864 2.016,-0.864 h 19.584 q 1.152,0 1.92,0.864 0.864,0.768 0.864,1.92 0,1.152 -0.864,2.016 -0.768,0.768 -1.92,0.768 z"
       style="font-style:normal;font-variant:normal;font-weight:normal;font-stretch:normal;font-size:96px;font-family:'ONE DAY';-inkscape-font-specification:'ONE DAY'"
       id="path846" />
    <path
       d="m 938.51158,-135.07359 q -1.152,0 -2.016,-0.768 -0.864,-0.768 -0.864,-2.016 0,-0.576 -0.096,-1.344 -0.192,-1.248 -0.576,-3.456 -1.344,-5.472 -4.896,-8.928 -5.568,-5.664 -16.128,-5.664 -7.584,0 -12,2.688 -4.32,2.688 -6.528,7.104 -2.208,4.416 -2.784,9.984 -0.576,5.472 -0.576,11.04 0,1.92 0,4.32 0.096,2.4 0.384,5.088 0.288,2.592 0.864,5.28 0.576,2.688 1.632,5.184 4.8,10.943996 19.008,10.943996 13.824,0 19.008,-9.791996 0.96,-1.824 1.536,-3.648 0.576,-1.824 0.768,-3.168 0.288,-1.44 0.288,-2.304 0.096,-0.864 0.096,-0.864 0,-1.152 0.864,-1.92 0.864,-0.768 2.016,-0.768 1.152,0 1.92,0.768 0.768,0.768 0.768,1.92 0,0.096 -0.096,1.248 0,1.056 -0.384,2.88 -0.288,1.728 -0.96,4.032 -0.672,2.208 -1.92,4.512 -1.152,2.208 -3.072,4.415996 -1.92,2.208 -4.8,4.128 -2.88,1.824 -6.816,2.976 -3.936,1.152 -9.216,1.152 -9.504,0 -15.648,-4.032 -5.28,-3.744 -8.448,-10.271996 -1.248,-2.88 -1.92,-5.856 -0.672,-3.072 -1.056,-5.952 -0.288,-2.976 -0.288,-5.568 -0.096,-2.688 -0.096,-4.704 0,-2.208 0.096,-4.896 0,-2.688 0.288,-5.568 0.288,-2.88 0.96,-5.856 0.672,-2.976 1.92,-5.76 1.536,-3.36 3.648,-5.856 2.112,-2.496 4.8,-4.416 6.144,-4.032 15.744,-4.032 12.864,0 20.16,7.296 2.592,2.688 4.032,5.664 1.44,2.976 2.112,5.568 0.672,2.592 0.768,4.416 0.192,1.728 0.192,2.016 v 0.096 q 0,1.152 -0.768,1.92 -0.768,0.768 -1.92,0.768 z"
       style="font-style:normal;font-variant:normal;font-weight:normal;font-stretch:normal;font-size:96px;font-family:'ONE DAY';-inkscape-font-specification:'ONE DAY'"
       id="path848" />
    <path
       d="m 954.66808,-139.96959 q -1.152,0 -1.92,-0.768 -0.768,-0.864 -0.768,-2.016 v -16.992 q 0,-1.152 0.768,-1.92 0.768,-0.768 1.92,-0.768 h 40.128 q 1.152,0 1.92,0.768 0.768,0.768 0.768,1.92 0,1.152 -0.768,2.016 -0.768,0.768 -1.92,0.768 h -37.344 v 14.208 q 0,1.152 -0.864,2.016 -0.768,0.768 -1.92,0.768 z m 40.128,49.439996 h -40.128 q -1.152,0 -1.92,-0.768 -0.768,-0.768 -0.768,-1.92 v -38.015996 q 0,-1.152 0.768,-1.92 0.768,-0.864 1.92,-0.864 h 30.432 q 1.152,0 1.92,0.864 0.864,0.768 0.864,1.92 0,1.056 -0.864,1.92 -0.768,0.768 -1.92,0.768 h -27.648 v 32.543996 h 37.344 q 1.152,0 1.92,0.864 0.768,0.768 0.768,1.92 0,1.152 -0.768,1.92 -0.768,0.768 -1.92,0.768 z"
       style="font-style:normal;font-variant:normal;font-weight:normal;font-stretch:normal;font-size:96px;font-family:'ONE DAY';-inkscape-font-specification:'ONE DAY'"
       id="path850" />
  </g>
</svg>
